<svg width="16" height="21" viewBox="0 0 16 21" fill="none" xmlns="http://www.w3.org/2000/svg">
<path d="M14.2273 20.8245C14.0037 20.8243 13.7829 20.7737 13.5816 20.6763C13.3802 20.5789 13.2033 20.4372 13.0641 20.2618C12.6334 19.7959 9.30455 16.5199 7.26473 14.5226C7.12356 14.3862 7.0107 14.2233 6.93266 14.043C6.85462 13.8628 6.81294 13.6689 6.81001 13.4725C6.80709 13.276 6.84297 13.081 6.91561 12.8985C6.98825 12.716 7.0962 12.5497 7.23325 12.4092C7.37029 12.2687 7.53373 12.1568 7.71414 12.0798C7.89455 12.0028 8.08837 11.9625 8.28445 11.9609C8.48052 11.9593 8.67496 11.9966 8.85658 12.0706C9.03821 12.1447 9.20339 12.254 9.34268 12.3923C9.35723 12.4066 10.8263 13.8452 12.2845 15.2824L12.7413 15.7328V8.73713C12.7413 6.01658 10.5504 3.80322 7.85714 3.80322C5.16394 3.80322 2.97297 6.01658 2.97297 8.73713V19.3351C2.97297 19.7301 2.81636 20.1089 2.53759 20.3882C2.25882 20.6675 1.88072 20.8243 1.48648 20.8243C1.09224 20.8243 0.714152 20.6675 0.435381 20.3882C0.156612 20.1089 0 19.7301 0 19.3351V8.73713C0 4.37408 3.52469 0.824524 7.85714 0.824524C12.1896 0.824524 15.7143 4.37408 15.7143 8.73713V19.3351C15.7141 19.7301 15.5574 20.1089 15.2786 20.3883C14.9997 20.6676 14.6216 20.8244 14.2273 20.8245ZM12.8759 19.9539L12.8765 19.9552L12.8759 19.9539Z" fill="#0A8057"/>
<path d="M7.85725 10.1687C8.79551 10.1687 9.55609 9.40667 9.55609 8.4666C9.55609 7.52654 8.79551 6.76447 7.85725 6.76447C6.91899 6.76447 6.15839 7.52654 6.15839 8.4666C6.15839 9.40667 6.91899 10.1687 7.85725 10.1687Z" fill="#0A8057"/>
</svg>
