<svg width="700" height="574" viewBox="0 0 700 574" fill="none" xmlns="http://www.w3.org/2000/svg">
<path d="M179.131 0.764282C185.131 2.09285 190.39 5.02158 195.481 8.30997C197.85 9.84406 200.263 11.2901 202.669 12.7141C204.137 13.5711 205.659 14.3336 207.224 14.9969C208.519 15.6293 209.926 15.9967 211.365 16.0773C212.803 16.158 214.243 15.9504 215.6 15.4666C217.208 14.9073 218.878 14.5474 220.574 14.395C223.334 14.114 226.117 14.6419 228.583 15.9144C232.868 18.1444 236.648 21.2325 239.688 24.9868C242.594 28.6009 245.26 32.4014 247.669 36.3641C250.889 41.4288 254.307 46.332 258.833 50.3104C259.493 50.8903 260.175 51.4554 260.872 51.9913C261.189 52.2592 261.589 52.4098 262.004 52.4178C262.42 52.4258 262.825 52.2908 263.153 52.0353C264.077 51.4114 265.016 50.8022 265.918 50.1489C270.743 46.6601 276.409 44.5194 282.334 43.9465C286.896 43.462 291.26 42.0747 295.595 40.5847C300.304 38.9625 304.969 37.1642 309.928 36.4228C315.642 35.5713 321.37 35.2924 326.967 37.1568C331.368 38.6248 335.035 41.1425 337.434 45.2824C337.698 45.7375 338.006 46.1632 338.299 46.6036C339.312 48.0716 340.581 48.8056 342.488 48.4093C344.013 48.1496 345.579 48.5031 346.845 49.3929C348.704 50.5166 350.476 51.7777 352.148 53.1657C355.863 56.3621 360.474 58.3311 365.351 58.8029C370.18 59.4342 374.909 60.685 379.419 62.5244C385.501 64.9184 392.046 65.9046 398.563 65.4091C403.807 65.0691 408.869 63.3471 413.233 60.4178C415.393 58.8734 417.181 56.8676 418.47 54.5457C419.781 52.3898 421.209 50.307 422.747 48.3065C425.428 44.6829 429.341 42.1661 433.749 41.2306C439.746 39.8259 445.591 37.8345 451.199 35.2851C454.982 33.5418 458.958 32.2532 463.045 31.4462C466.749 30.829 470.519 30.7204 474.253 31.1232C477.343 31.4266 480.433 31.7104 483.524 31.9747C487.14 32.2903 490.756 32.6206 494.38 32.8922C497.185 33.0977 500.002 33.0977 502.807 32.8922C506.475 32.6206 510.142 32.1141 513.81 31.9673C516.497 31.8097 519.191 31.8097 521.878 31.9673C526.8 32.3298 531.606 33.6356 536.035 35.8136C539.299 37.4137 542.475 39.1974 545.695 40.8783C548.622 42.5003 551.77 43.6872 555.039 44.4015C559.822 45.3337 564.238 44.2547 568.433 42.0233C571.552 40.2595 574.44 38.1144 577.03 35.6374C580.03 32.9215 582.971 30.147 586.074 27.5632C589.951 24.283 594.747 22.2832 599.805 21.8379C601.966 21.6279 604.089 21.1216 606.113 20.3332C607.624 19.8021 608.879 18.7193 609.626 17.3017C609.868 16.8319 610.184 16.3988 610.36 15.9144C612.127 11.9947 615.45 10.446 619.433 9.88076C623.937 9.23483 628.169 10.3505 632.291 11.9874C638.159 14.3216 643.404 17.7861 648.369 21.6544C654.655 26.5503 660.333 32.0407 664.506 38.8964C668.022 44.6164 670.21 51.0528 670.91 57.7313C671.342 61.717 671.115 65.7027 671.174 69.6884C671.122 71.7401 671.24 73.7925 671.526 75.8248C671.784 77.5174 672.454 79.1205 673.477 80.4927C674.501 81.8649 675.846 82.9641 677.394 83.6934C680.078 85.044 682.961 85.8955 685.748 86.9378C687.787 87.6827 689.771 88.5731 691.682 89.6023C695.907 91.9731 699.017 95.2248 700 100.157V106.852C699.149 110.647 696.905 113.788 695.152 117.165C694.097 119.063 693.326 121.106 692.863 123.228C692.727 123.857 692.722 124.508 692.848 125.139C692.974 125.77 693.229 126.369 693.597 126.898C693.927 127.382 694.279 127.852 694.623 128.329C697.337 132.153 697.227 136.11 695.1 140.11C693.931 142.156 692.344 143.931 690.443 145.321C685.902 148.889 680.709 151.194 675.311 153.051C674.981 153.168 674.628 153.241 674.306 153.374C671.506 154.486 668.43 154.699 665.504 153.983C664.761 153.798 663.99 153.751 663.23 153.843C662.005 154.042 661.029 154.577 660.751 155.95C660.65 156.591 660.426 157.207 660.091 157.763C658.866 159.613 658.396 161.719 657.853 163.826C656.812 167.848 654.861 169.537 650.702 169.918C650.001 169.953 649.319 170.161 648.717 170.523C648.116 170.886 647.613 171.392 647.254 171.996C646.521 173.177 645.663 174.322 644.988 175.556C642.01 181.019 639.46 186.705 637.36 192.563C635.885 196.96 634.963 201.524 634.616 206.149C634.154 210.898 633.391 215.574 631.33 219.942C629.857 222.817 628.139 225.56 626.196 228.14C625.023 229.613 624.162 231.309 623.665 233.124C623.065 235.894 623.261 238.778 624.23 241.441C624.913 243.189 625.457 244.988 625.858 246.821C626.266 249.157 625.807 251.561 624.567 253.581C623.315 255.714 621.55 257.501 619.433 258.778C617.551 259.957 615.591 261.004 613.565 261.913C610.902 263.146 608.203 264.298 605.827 266.067C603.208 268.02 601.763 270.471 601.858 273.862C602.031 276.442 601.957 279.033 601.638 281.599C601.468 282.64 601.223 283.668 600.905 284.674C599.379 289.357 597.832 294.04 596.328 298.731C593.929 306.49 588.936 313.187 582.186 317.698C580.198 319.056 578.196 320.384 576.193 321.72C571.617 324.766 568.411 328.789 567.15 334.235C566.687 336.239 566.306 338.25 566.005 340.283C565.741 342.082 565.484 343.888 565.154 345.671C564.432 349.668 562.938 353.485 560.753 356.909C559.815 358.377 558.978 359.948 558.01 361.416C556.364 363.911 555.393 366.792 555.194 369.776C554.856 374.584 552.751 378.526 549.531 381.976C548.453 383.135 547.411 384.324 546.377 385.528C545.409 386.639 544.722 387.966 544.376 389.399C544.03 390.831 544.035 392.326 544.389 393.757C544.859 396.054 545.379 398.344 545.724 400.671C546.348 404.921 544.529 407.938 541.103 410.169C539.893 410.892 538.618 411.501 537.296 411.99C535.868 412.525 534.513 413.238 533.262 414.111C531.068 415.724 529.452 418.002 528.656 420.607C527.878 423.125 527.152 425.664 526.155 428.116C524.453 432.329 522.406 436.329 519.326 439.735C515.484 443.94 510.295 446.668 504.656 447.45C501.021 448.055 497.324 448.198 493.653 447.876C493.245 447.882 492.847 447.746 492.528 447.49C492.209 447.234 491.99 446.874 491.908 446.474C491.509 445.246 491.286 443.969 491.248 442.679C491.273 440.625 491.185 438.572 490.983 436.528C490.683 433.885 489.685 431.683 487.36 430.215C483.876 428.013 481.411 424.754 478.697 421.759C477.088 419.893 475.315 418.174 473.402 416.621C469.397 413.538 465.487 414.419 462.208 417.252C461.308 418.097 460.517 419.052 459.854 420.093C457.287 423.763 453.619 424.828 449.372 424.497C447.251 424.318 445.22 423.556 443.504 422.295C442.771 421.745 441.949 421.245 441.194 420.68C440.455 420.143 439.594 419.798 438.688 419.678C437.783 419.557 436.862 419.665 436.008 419.99C434.451 420.528 433.006 421.349 431.746 422.413C429.055 424.49 426.443 426.692 423.194 427.91C422.87 428.053 422.584 428.27 422.359 428.544C422.135 428.819 421.978 429.142 421.903 429.488C421.36 431.098 420.832 432.713 420.319 434.333C419.838 435.965 419.275 437.573 418.632 439.148C417.875 440.967 416.749 442.608 415.324 443.967C413.9 445.327 412.209 446.375 410.358 447.046C408.175 447.91 405.944 448.645 403.676 449.248C399.011 450.481 395.717 453.359 393.407 457.469C392.453 459.157 391.522 460.86 390.7 462.607C388.33 467.683 384.76 472.104 380.299 475.489C378.356 477.005 376.509 478.64 374.769 480.385C371.219 483.916 369.964 488.195 370.463 493.084C370.764 496.02 371.035 498.919 371.336 501.833C371.428 503.945 371.318 506.062 371.006 508.153C370.566 513.056 369.964 517.945 369.091 522.833C367.683 530.614 363.884 537.103 358.573 542.791C355.257 546.463 351.243 549.435 346.764 551.533C344.43 552.647 341.916 553.333 339.341 553.559C337.727 553.677 337.654 553.611 337.456 552.025C337.138 549.332 336.127 546.768 334.522 544.582C334.28 544.252 334.008 543.936 333.737 543.628C333.678 543.536 333.588 543.468 333.482 543.437C333.377 543.406 333.265 543.414 333.165 543.459C333.837 545.318 334.328 547.238 334.632 549.192C334.901 550.939 334.753 552.725 334.199 554.403C333.817 555.706 333.127 556.897 332.187 557.876C331.248 558.855 330.086 559.592 328.801 560.026C325.595 561.178 322.36 561.068 319.089 560.43C316.894 560.04 314.732 559.485 312.62 558.771C310.948 558.2 309.14 558.167 307.449 558.675C305.125 559.304 302.869 560.162 300.715 561.237C299.108 562.117 297.286 562.527 295.458 562.421C293.629 562.314 291.867 561.696 290.373 560.635C290.123 560.474 289.874 560.327 289.639 560.18C289.214 559.931 288.803 559.96 288.576 560.393C288.07 561.332 287.175 561.377 286.302 561.472C284.193 561.565 282.081 561.452 279.994 561.134C278.655 560.986 277.307 560.93 275.96 560.966C273.987 561.039 273.224 561.7 272.776 563.586C272.656 564.157 272.573 564.736 272.527 565.318C272.388 566.706 272.256 566.896 270.899 567.19C269.582 567.509 268.211 567.524 266.888 567.234C265.565 566.944 264.325 566.357 263.263 565.516C262.163 564.68 262.097 564.724 261.569 565.993C260.63 568.24 260.63 568.24 258.789 566.683L257.659 565.737C256.969 566.221 256.984 566.999 256.83 567.623C256.752 568.059 256.528 568.455 256.194 568.746C255.861 569.037 255.438 569.205 254.996 569.223C254.418 569.315 253.829 569.315 253.251 569.223C252.319 569.105 251.396 568.931 250.485 568.702C247.163 567.696 244.28 568.849 241.471 570.442C240.451 571.021 239.424 571.594 238.368 572.093C237.628 572.462 236.804 572.632 235.979 572.586C235.153 572.539 234.353 572.279 233.659 571.829C232.89 571.395 232.155 570.904 231.459 570.361C230.841 569.864 230.108 569.529 229.328 569.388C228.547 569.247 227.744 569.304 226.992 569.553C225.356 570.024 223.766 570.638 222.239 571.389C220.582 572.137 218.844 572.689 217.06 573.033C214.964 573.449 212.789 573.033 210.994 571.873C210.305 571.433 209.622 570.963 208.97 570.464C208.202 569.867 207.318 569.437 206.374 569.202C205.431 568.967 204.448 568.932 203.49 569.098C192.07 570.75 182.953 566.456 175.412 558.184C169.882 552.121 166.075 544.971 162.906 537.492C160.335 531.376 158.252 525.066 156.679 518.62C155.813 515.558 155.732 512.326 156.444 509.225C157.251 506.12 158.828 503.639 161.711 502.09C162.378 501.73 163.002 501.275 163.632 500.85C163.918 500.651 164.263 500.402 164.109 500.005C163.955 499.609 163.427 499.616 163.038 499.734C162.361 499.922 161.701 500.168 161.065 500.468C159.897 501.018 158.761 501.633 157.662 502.31C157.065 502.682 156.399 502.929 155.704 503.035C155.01 503.141 154.3 503.104 153.62 502.927C149.954 502.192 146.711 500.07 144.569 497.003C142.853 494.613 141.558 491.947 140.74 489.12C139.816 486.096 138.98 483.035 138.187 479.967C136.865 474.757 134.017 470.061 130.009 466.483C123.884 460.823 117.274 455.711 110.256 451.208C103.596 446.995 96.2022 444.514 88.6179 442.561C83.7439 441.25 78.7077 440.642 73.6619 440.756C70.8453 440.834 68.0287 440.834 65.2121 440.756C61.2128 440.732 57.2457 440.038 53.4762 438.7C51.5324 437.966 51.5104 437.966 52.794 436.227L54.261 434.157C50.4248 434.612 46.706 434.157 43.706 436.77C43.0847 437.3 42.4306 437.79 41.7476 438.238C40.8884 438.762 40.2694 439.603 40.0239 440.579C39.8195 441.35 39.41 442.05 38.8391 442.606C38.2681 443.162 37.5571 443.552 36.7819 443.736C34.7155 444.474 32.4454 444.392 30.4371 443.508C29.3504 443.063 28.317 442.496 27.3565 441.82C24.4592 439.662 21.2244 439.735 17.9311 440.352C15.2098 440.866 12.6572 441.945 10.0313 442.782C7.02837 443.824 3.83305 444.192 0.671936 443.861L0.671936 440.337C0.808956 440.078 0.917182 439.805 0.994673 439.522C1.61081 435.852 3.73061 432.968 6.23182 430.34C7.64013 428.872 8.73304 427.22 8.89441 425.114C8.96007 423.412 8.68061 421.714 8.07289 420.122C7.56678 418.559 6.99466 417.018 6.53989 415.483C5.37363 411.747 5.57168 408.202 8.00688 404.95C8.64489 404.035 9.23492 403.087 9.7746 402.11C10.1315 401.567 10.364 400.952 10.4553 400.308C10.5466 399.665 10.4945 399.009 10.3027 398.388C8.87974 393.984 9.46653 389.58 10.134 385.176C10.4023 382.88 11.3969 380.73 12.9726 379.04C13.1242 378.923 13.2496 378.777 13.3406 378.609C13.4316 378.441 13.4862 378.255 13.5007 378.065C13.5153 377.874 13.4895 377.683 13.425 377.503C13.3606 377.323 13.2589 377.159 13.1267 377.021C12.6719 376.419 12.2171 375.803 11.733 375.215C11.1316 374.481 10.5008 373.799 9.88462 373.087C7.5443 370.539 6.06594 367.319 5.6597 363.882C5.03739 358.523 4.82162 353.125 5.01422 347.734C5.26361 341.671 6.72326 335.916 8.51299 330.198C9.85439 326 10.518 321.614 10.4788 317.206C10.4127 312.508 10.3907 307.811 10.4788 303.12C10.5671 299.37 11.2351 295.656 12.4592 292.11C13.8465 287.95 16.5997 284.383 20.2709 281.988C23.1022 280.099 26.0913 278.458 29.2049 277.085C30.0632 276.717 30.8313 276.167 31.4557 275.472C32.0802 274.778 32.5461 273.955 32.821 273.062C34.0904 269.284 35.0712 265.414 35.755 261.487C36.2254 258.769 36.9373 256.099 37.8821 253.508C39.5691 249.17 42.3637 245.97 46.9481 244.612C47.3195 244.538 47.651 244.331 47.8806 244.029C48.1102 243.728 48.222 243.353 48.195 242.975C48.3784 239.576 50.2855 237.485 53.3882 236.369C54.5471 235.95 55.728 235.591 56.9016 235.238C60.9505 234.035 65.2488 230.225 65.0507 224.228C64.904 220.066 64.3906 215.919 64.574 211.75C64.578 210.578 64.6885 209.408 64.904 208.256C65.8722 204.079 68.7035 201.65 72.9725 201.459C75.6571 201.32 75.6424 201.32 75.9064 198.567C76.0678 196.754 76.5006 194.985 76.8233 193.194C77.2781 190.662 77.8575 188.151 77.5568 185.524C77.0168 181.419 75.2059 177.587 72.3783 174.565C70.5739 172.561 68.7109 170.63 66.8478 168.648C64.3509 166.084 62.3205 163.103 60.8478 159.84C58.6473 154.643 58.6473 149.366 60.2243 144C61.5813 139.383 63.9505 135.28 66.349 131.17C67.0825 129.958 67.6766 128.689 68.3588 127.455C69.9111 124.532 70.411 121.162 69.7744 117.913C69.0996 113.627 68.2634 109.362 67.684 105.068C66.8698 99.1151 66.7084 93.1476 68.0654 87.2241C69.1562 82.5131 71.3994 78.147 74.5935 74.5182C77.4177 71.3849 80.4463 68.4424 83.6595 65.71C87.138 62.7498 90.4165 59.5621 93.4736 56.1678C96.5543 52.5932 98.3 48.6001 98.19 43.829C98.1313 41.1278 98.1435 38.4364 98.2267 35.7548C98.2296 33.232 98.4357 30.7135 98.8428 28.2238C99.1618 26.0053 99.9931 23.8917 101.271 22.0508C102.333 20.5453 103.891 19.4618 105.672 18.9899C107.19 18.5274 108.765 18.2803 110.351 18.2559C113.777 18.3073 116.146 16.7879 117.686 13.7564C118.408 12.246 119.328 10.8389 120.422 9.57248C124.222 5.38858 128.975 3.84715 134.527 4.43436C137.997 4.81605 141.261 5.95378 144.583 6.90066C146.271 7.38511 147.98 7.78882 149.718 8.14115C152.688 8.67726 155.751 8.32227 158.52 7.12086C159.931 6.56196 161.303 5.90969 162.627 5.16838C166.026 3.1955 169.685 1.71283 173.498 0.764282L179.131 0.764282ZM259.911 548.553C260.551 549.018 260.991 549.707 261.143 550.484C262.155 553.112 263.109 555.761 264.077 558.396C264.489 559.627 265.209 560.731 266.168 561.604C267.356 562.61 267.752 562.551 268.287 561.149C269.615 557.692 272.212 556.165 275.784 556.114C277.599 556.062 279.417 556.151 281.219 556.378C284.842 556.899 284.886 556.811 287.087 553.721C287.123 553.677 287.153 553.625 287.189 553.574C287.835 552.722 287.996 552.671 288.884 553.346C289.999 554.198 291.084 555.108 292.177 555.982C294.26 557.626 296.409 558 298.874 556.716C301.308 555.47 303.881 554.517 306.539 553.875C308.972 553.159 311.569 553.225 313.962 554.066C314.894 554.41 315.844 554.704 316.808 554.947C319.661 555.6 322.507 556.304 325.485 555.842C328.463 555.38 329.739 553.97 329.776 550.88C329.727 548.523 329.148 546.208 328.082 544.105C327.466 542.777 326.761 541.485 326.079 540.193C325.793 539.65 325.749 539.231 326.358 538.857C329.622 536.838 332.959 536.868 335.739 538.93C338.197 540.736 339.693 543.232 340.874 545.948C341.923 548.348 341.901 548.362 344.263 547.335C344.637 547.166 344.996 546.997 345.378 546.806C350.29 544.24 354.555 540.588 357.847 536.126C360.924 532.251 363.065 527.717 364.104 522.877C365.151 517.295 365.885 511.659 366.304 505.995C366.491 503.888 366.462 501.768 366.216 499.668C365.841 496.64 365.63 493.594 365.585 490.544C365.546 488.161 365.98 485.795 366.861 483.581C367.742 481.367 369.054 479.35 370.72 477.647C372.774 475.469 374.998 473.459 377.373 471.636C381.165 468.744 384.188 464.963 386.174 460.625C387.203 458.384 388.384 456.216 389.71 454.137C390.917 452.188 392.382 450.413 394.067 448.859C396.487 446.657 399.436 445.541 402.465 444.587C404.593 443.919 406.727 443.295 408.803 442.466C410.038 441.986 411.158 441.252 412.089 440.309C413.021 439.367 413.743 438.238 414.209 436.997C414.741 435.694 415.203 434.364 415.595 433.012C416.265 430.516 417.136 428.078 418.199 425.723C418.395 425.202 418.719 424.739 419.141 424.376C419.562 424.013 420.068 423.762 420.612 423.646C422.037 423.278 423.372 422.624 424.536 421.723C425.871 420.761 427.177 419.763 428.49 418.787C429.898 417.631 431.451 416.666 433.111 415.917C436.991 414.353 440.754 414.25 444.267 416.907C444.641 417.194 445.052 417.436 445.404 417.744C447.348 419.477 449.658 419.807 452.145 419.572C452.79 419.528 453.418 419.348 453.989 419.043C454.559 418.738 455.058 418.315 455.453 417.803C456.04 417.069 456.568 416.291 457.162 415.564C461.636 410.066 469.631 407.211 476.893 413.252C478.891 414.978 480.775 416.831 482.534 418.801C484.837 421.29 486.81 424.138 489.729 425.995C494.13 428.776 495.883 432.887 495.986 437.893C495.986 439.126 495.986 440.359 495.986 441.563C496.03 442.921 496.184 443.075 497.526 443.104C499.637 443.168 501.749 443.033 503.834 442.701C509.343 441.769 513.876 439.244 517.169 434.627C518.429 432.859 519.519 430.976 520.426 429.004C521.82 425.834 522.989 422.569 523.925 419.234C524.467 417.37 525.334 415.616 526.485 414.052C528.415 411.434 531.022 409.391 534.025 408.143C535.492 407.527 536.959 406.917 538.345 406.176C539.268 405.764 540.022 405.047 540.478 404.144C540.935 403.242 541.068 402.21 540.854 401.222C540.626 399.893 540.355 398.572 540.12 397.243C539.834 395.687 539.497 394.138 539.269 392.575C538.712 388.677 540.318 385.455 542.607 382.511C543.832 380.941 545.174 379.451 546.546 378.005C548.881 375.487 550.253 372.224 550.419 368.793C550.612 365.731 551.549 362.763 553.147 360.146C554.174 358.502 555.091 356.792 556.147 355.169C558.543 351.53 560.09 347.399 560.673 343.08C561.059 340.35 561.516 337.631 562.044 334.925C562.947 330.235 564.67 325.911 567.978 322.359C570.224 320.034 572.764 318.013 575.533 316.347C577.47 315.129 579.333 313.8 581.159 312.42C585.588 309.075 588.978 304.543 590.937 299.347C592.484 295.34 593.416 291.141 595.008 287.163C596.554 283.405 597.207 279.34 596.915 275.286C596.871 274.64 596.915 273.994 596.915 273.349C596.917 271.313 597.384 269.304 598.282 267.477C599.18 265.65 600.483 264.053 602.093 262.808C603.552 261.623 605.139 260.606 606.824 259.777C608.768 258.808 610.741 257.905 612.692 256.958C615.025 255.828 617.335 254.675 619.154 252.774C620.973 250.873 621.648 248.832 620.812 246.322C620.365 244.994 619.888 243.665 619.455 242.329C618.365 238.836 618.235 235.114 619.081 231.554C619.675 228.86 621.281 226.658 622.866 224.448C624.075 222.795 625.199 221.08 626.232 219.31C628.814 214.73 629.416 209.665 629.9 204.571C630.179 201.001 630.816 197.467 631.8 194.023C633.93 187.183 636.728 180.57 640.154 174.278C641.261 172.209 642.517 170.222 643.91 168.333C644.577 167.401 645.447 166.633 646.455 166.087C647.463 165.541 648.582 165.233 649.726 165.184C652.242 164.986 652.66 164.582 653.284 162.101C653.372 161.756 653.445 161.411 653.518 161.073C653.809 159.39 654.43 157.781 655.345 156.339C655.781 155.703 656.035 154.959 656.078 154.188C656.203 152.368 657.252 151.201 658.792 150.357C661.074 149.099 663.723 148.678 666.281 149.168C667.884 149.569 669.557 149.602 671.174 149.263C677.042 147.546 682.69 145.241 687.582 141.424C688.86 140.475 689.943 139.289 690.773 137.93C692.152 135.537 692.35 133.173 690.509 130.891C690.252 130.568 690.032 130.215 689.775 129.892C688.466 128.207 687.822 126.099 687.963 123.969C688.052 122.326 688.386 120.705 688.954 119.161C689.758 117.021 690.74 114.951 691.888 112.973C692.924 111.199 693.867 109.371 694.712 107.498C696.267 103.901 695.738 100.51 693.545 97.3388C692.279 95.7079 690.645 94.4 688.778 93.5219C686.577 92.4136 684.297 91.4714 681.956 90.7033C679.389 89.8726 676.892 88.8393 674.489 87.6131C672.506 86.5555 670.791 85.0588 669.474 83.2373C668.158 81.4157 667.274 79.3173 666.89 77.102C666.462 74.8519 666.248 72.5662 666.252 70.2756C666.252 67.3396 666.289 64.4035 666.252 61.4674C666.183 53.603 663.731 45.9446 659.218 39.5057C656.155 35.1106 652.502 31.1586 648.362 27.7614C642.949 23.2178 637.228 19.144 630.655 16.3988C627.443 14.9256 623.912 14.2844 620.387 14.5344C617.849 14.7767 615.721 15.6722 614.643 18.2045C614.482 18.5789 614.269 18.9385 614.078 19.2982C612.832 21.7201 610.745 23.6042 608.211 24.5978C605.706 25.6035 603.07 26.2461 600.384 26.5062C596.263 26.8615 592.357 28.4991 589.213 31.1893C586.944 33.1466 584.712 35.1383 582.516 37.1641C579.157 40.269 575.768 43.3446 571.771 45.6567C564.017 50.1342 556.052 50.6627 547.815 47.1247C544.471 45.691 541.229 44.0307 538.11 42.1555C529.807 37.1495 520.844 35.8062 511.353 36.9439C508.419 37.2963 505.411 37.5752 502.426 37.7293C496.565 37.951 490.696 37.7056 484.873 36.9953C480.326 36.5035 475.778 36.0998 471.223 35.7475C469.757 35.6554 468.285 35.6775 466.822 35.8136C462.507 36.2626 458.294 37.4181 454.353 39.2341C448.001 42.0013 441.575 44.5263 434.761 45.965C431.577 46.6728 428.749 48.4948 426.788 51.1031C424.947 53.4006 423.436 55.9183 421.837 58.3772C419.97 61.2451 417.458 63.6357 414.502 65.3577C406.918 69.8352 398.695 71.0023 390.084 70.0774C385.249 69.4782 380.514 68.2442 376.001 66.4074C372.159 64.9473 368.154 63.9613 364.074 63.4713C359.035 62.8254 354.392 61.1885 350.409 57.9074C349.14 56.8651 347.754 55.977 346.478 54.9714C345.755 54.3297 344.905 53.8477 343.984 53.5568C343.063 53.2659 342.09 53.1726 341.131 53.2831C340.128 53.3699 339.12 53.2153 338.19 52.8322C337.259 52.4491 336.434 51.8487 335.783 51.0811C334.866 50.1696 334.069 49.1433 333.414 48.0276C331.309 44.2694 327.95 42.3096 323.945 41.304C319.544 40.1956 315.092 40.4232 310.676 41.1499C306.026 41.8839 301.617 43.5648 297.194 45.1135C292.414 46.913 287.438 48.1448 282.37 48.7836C277.27 49.368 272.421 51.3152 268.331 54.4209C267.532 55.0081 266.718 55.588 265.874 56.1238C262.94 57.9882 260.74 57.9221 257.916 55.8595C256.046 54.4383 254.299 52.8619 252.693 51.1472C248.886 47.2789 245.945 42.75 243.033 38.1991C240.849 34.65 238.443 31.2422 235.83 27.9963C233.345 24.9334 230.282 22.3895 226.816 20.5093C224.719 19.2777 222.226 18.9067 219.862 19.4744C218.102 19.9294 216.334 20.3405 214.559 20.7295C212.666 21.1678 210.696 21.1426 208.816 20.6561C205.645 19.7771 202.615 18.4524 199.816 16.7218C196.339 14.6445 192.95 12.4278 189.488 10.3432C186.509 8.45763 183.282 6.99521 179.901 5.99782C177.113 5.21614 174.147 5.35514 171.444 6.39419C169.743 7.03024 168.088 7.7857 166.493 8.65496C164.544 9.73747 162.533 10.7056 160.471 11.5543C156.326 13.2831 151.741 13.6581 147.371 12.626C145.31 12.1489 143.285 11.5617 141.268 10.9598C138.4 10.101 135.547 9.21281 132.51 9.18345C128.197 9.13941 124.933 10.901 122.769 14.6666C122.102 15.8336 121.434 17.0154 120.657 18.1164C118.823 20.7075 116.491 22.5205 113.183 22.8435C111.664 22.9756 110.161 23.2766 108.642 23.35C106.244 23.4674 104.975 24.818 104.197 26.954C103.537 28.965 103.202 31.0689 103.207 33.1858C103.148 36.5256 103.207 39.8727 103.163 43.2198C103.117 44.9826 102.938 46.7395 102.628 48.4753C102.041 52.3876 100.038 55.5953 97.6179 58.6048C94.3685 62.6492 90.459 66.033 86.6155 69.4755C83.2047 72.5291 79.7573 75.5459 76.9847 79.2306C75.0669 81.7643 73.6888 84.6647 72.9358 87.7525C71.6815 92.8466 71.7622 97.9774 72.3563 103.167C72.8698 107.571 73.8233 111.975 74.5568 116.379C75.393 121.363 74.8429 126.083 72.3563 130.509C71.2487 132.447 70.1558 134.385 69.0409 136.315C67.2063 139.326 65.7782 142.567 64.794 145.953C63.327 151.612 64.0605 156.89 67.5006 161.697C68.014 162.431 68.5642 163.107 69.1069 163.797C71.3074 166.557 73.9627 168.883 76.2585 171.555C80.6155 176.627 82.9847 182.375 82.4712 189.172C82.3007 191.042 82.0042 192.898 81.5837 194.728C80.8502 198.075 80.3441 201.415 80.9529 204.85C81.2243 206.406 80.8355 206.722 79.2292 206.582C78.9431 206.582 78.657 206.487 78.3636 206.443C76.6758 206.222 74.9686 206.187 73.2732 206.34C71.1534 206.494 70.2292 207.375 69.7818 209.423C69.5699 210.387 69.4617 211.372 69.459 212.359C69.459 215.354 69.7598 218.334 69.9945 221.314C70.2346 223.712 70.0934 226.132 69.5764 228.485C68.2781 233.88 64.728 237.33 59.7402 239.415C58.2732 240.024 56.7182 240.377 55.2439 240.942C53.3222 241.676 52.9187 242.483 53.4175 244.502C53.6376 245.412 53.997 246.285 54.239 247.188C54.5251 248.245 54.4151 248.407 53.3368 248.59C52.5868 248.717 51.83 248.801 51.0703 248.84C46.9261 249.045 44.1681 251.13 42.6645 254.961C41.5599 258.058 40.7543 261.253 40.2586 264.504C39.5608 268.132 38.5798 271.701 37.3246 275.176C36.9151 276.497 36.2263 277.715 35.3049 278.746C34.3835 279.777 33.2512 280.597 31.9848 281.151C30.5178 281.79 29.1462 282.553 27.7305 283.272C26.1188 284.112 24.5564 285.043 23.0508 286.062C20.1241 287.978 17.978 290.878 16.9995 294.239C15.2318 299.942 15.1218 305.792 15.4152 311.672C15.6551 315.774 15.5201 319.889 15.0117 323.966C14.522 327.336 13.7139 330.651 12.5986 333.868C10.753 339.449 9.85301 345.299 9.93597 351.176C9.98731 354.641 10.002 358.098 10.3321 361.548C10.6621 364.998 11.6303 367.971 14.0802 370.437C14.8137 371.171 15.4812 372.022 16.156 372.837C17.86 374.802 18.9267 377.239 19.2147 379.825C19.2954 380.64 19.2147 381.198 18.3345 381.447C16.2367 382.056 15.4005 383.723 15.0484 385.646C14.4176 389.47 14.0582 393.316 15.0484 397.162C15.4219 398.497 15.5006 399.896 15.2789 401.264C15.0572 402.632 14.5405 403.935 13.7648 405.082C13.0313 406.22 12.2978 407.365 11.5643 408.503C11.1765 409.091 10.915 409.754 10.7963 410.449C10.6776 411.144 10.7044 411.856 10.8748 412.54C11.2438 414.142 11.7142 415.718 12.2831 417.26C12.8093 418.628 13.2239 420.037 13.5228 421.473C14.0037 423.452 13.993 425.519 13.4918 427.494C12.9906 429.468 12.0141 431.289 10.6475 432.799C9.83328 433.724 9.03377 434.656 8.21959 435.581C7.45494 436.435 6.86885 437.433 6.49588 438.517C7.53744 438.737 8.32962 438.289 9.13646 438.04C11.8284 437.21 14.4396 436.168 17.2049 435.581C21.7672 434.619 26.0655 434.972 29.9677 437.783C30.6078 438.196 31.2715 438.571 31.9555 438.906C32.5341 439.202 33.176 439.353 33.8259 439.346C34.2319 439.418 34.6501 439.333 34.9959 439.108C35.3417 438.883 35.5894 438.536 35.6889 438.135C36.1724 436.656 37.1587 435.394 38.4762 434.568C39.3344 433.959 40.2146 433.364 41.0508 432.725C43.6863 430.72 46.9086 429.639 50.2195 429.65C52.395 429.64 54.5485 429.214 56.5642 428.395C58.0752 427.764 59.6375 427.25 61.1999 426.751C62.31 426.362 63.4787 426.169 64.6546 426.178C66.051 426.16 67.3998 426.685 68.4156 427.644C69.4313 428.603 70.0344 429.92 70.0972 431.316C70.1375 432.077 70.1375 432.839 70.0972 433.599C70.0605 435.985 70.0532 435.955 72.4957 435.992C75.3637 436.043 78.239 435.845 81.1069 436.219C85.695 436.846 90.2238 437.851 94.6472 439.222C102.158 441.482 109.317 444.514 115.772 449.043C121.536 452.985 127.034 457.303 132.231 461.969C135.716 465.147 138.943 468.538 140.857 472.979C141.993 475.748 142.917 478.599 143.623 481.508C144.353 484.657 145.334 487.743 146.557 490.735C147.418 492.865 148.767 494.763 150.495 496.277C153.019 498.354 154.515 498.479 157.332 496.886C158.352 496.298 159.425 495.807 160.537 495.418C161.526 495.047 162.569 494.841 163.625 494.809C164.839 494.747 166.038 495.093 167.034 495.791C168.029 496.489 168.763 497.499 169.119 498.662C169.904 500.938 169.266 502.743 166.992 504.446C166.052 505.137 165.072 505.771 164.058 506.347C163.372 506.747 162.776 507.284 162.306 507.924C161.837 508.564 161.504 509.294 161.329 510.069C160.803 512.005 160.755 514.041 161.19 516C163.306 525.878 166.802 535.409 171.576 544.311C174.51 549.588 177.906 554.469 182.579 558.382C188.307 563.19 194.777 565.436 202.302 564.349C205.772 563.85 209.094 564.349 211.948 566.654C212.402 567.014 212.916 567.322 213.415 567.652C213.869 567.976 214.39 568.195 214.939 568.293C215.488 568.391 216.052 568.365 216.591 568.218C217.782 567.915 218.947 567.518 220.075 567.028C221.652 566.39 223.17 565.626 224.813 565.142C228.385 564.092 231.723 564.21 234.759 566.72C236.226 567.931 236.6 567.865 238.148 566.72C238.859 566.122 239.662 565.641 240.525 565.296C242.307 564.716 244.082 564.114 245.872 563.542C246.702 563.24 247.602 563.189 248.461 563.395C249.481 563.667 250.529 563.806 251.564 564.034C252.297 564.195 252.539 563.857 252.532 563.204C252.526 562.909 252.501 562.615 252.458 562.323C252.112 559.813 251.155 557.426 249.671 555.372C249.29 554.851 248.938 554.33 248.549 553.794C248.16 553.258 248.182 552.818 248.886 552.554C249.91 552.114 250.977 551.782 252.07 551.563C253.061 551.368 254.089 551.487 255.009 551.904C255.929 552.321 256.697 553.015 257.204 553.89C257.696 554.689 258.113 555.532 258.451 556.407C258.671 556.928 258.693 557.545 259.185 558C259.727 554.947 259.485 551.834 259.911 548.553Z" fill="#0A8057"/>
</svg>
