<svg width="19" height="25" viewBox="0 0 19 25" fill="none" xmlns="http://www.w3.org/2000/svg">
<path d="M17.0728 24.439C16.8044 24.4388 16.5395 24.378 16.2979 24.2611C16.0562 24.1442 15.844 23.9742 15.6769 23.7638C15.1601 23.2046 11.1655 19.2734 8.71768 16.8766C8.54827 16.713 8.41285 16.5175 8.31919 16.3011C8.22555 16.0849 8.17552 15.8522 8.17201 15.6165C8.16851 15.3808 8.21157 15.1467 8.29873 14.9277C8.3859 14.7087 8.51545 14.5092 8.6799 14.3405C8.84435 14.172 9.04048 14.0376 9.25697 13.9453C9.47346 13.8529 9.70605 13.8045 9.94133 13.8026C10.1766 13.8006 10.41 13.8454 10.6279 13.9343C10.8459 14.0232 11.0441 14.1543 11.2112 14.3203C11.2287 14.3374 12.9916 16.0638 14.7414 17.7884L15.2896 18.3289V9.93409C15.2896 6.66943 12.6604 4.0134 9.42857 4.0134C6.19672 4.0134 3.56757 6.66943 3.56757 9.93409V22.6516C3.56757 23.1256 3.37963 23.5802 3.04511 23.9154C2.71059 24.2505 2.25687 24.4388 1.78378 24.4388C1.31069 24.4388 0.856982 24.2505 0.522457 23.9154C0.187934 23.5802 0 23.1256 0 22.6516V9.93409C0 4.69843 4.22962 0.438965 9.42857 0.438965C14.6275 0.438965 18.8571 4.69843 18.8571 9.93409V22.6516C18.8569 23.1256 18.6689 23.5802 18.3343 23.9155C17.9997 24.2506 17.5459 24.4389 17.0728 24.439ZM15.4511 23.3942L15.4518 23.3958L15.4511 23.3942Z" fill="white"/>
<path d="M9.42865 11.652C10.5546 11.652 11.4673 10.7375 11.4673 9.60946C11.4673 8.48138 10.5546 7.56689 9.42865 7.56689C8.30274 7.56689 7.39001 8.48138 7.39001 9.60946C7.39001 10.7375 8.30274 11.652 9.42865 11.652Z" fill="white"/>
</svg>
