<svg width="100" height="100" viewBox="0 0 100 100" fill="none" xmlns="http://www.w3.org/2000/svg">
<path d="M70.8333 80.0835H20.8333V29.1668H50V20.8335H20.8333C16.25 20.8335 12.5 24.5835 12.5 29.1668V79.1668C12.5 83.7502 16.25 87.5002 20.8333 87.5002H70.8333C75.4167 87.5002 79.1667 83.7502 79.1667 79.1668V50.0002H70.8333V80.0835Z" fill="black"/>
<path d="M79.1665 8.3335H70.8332V20.8335H58.3332C58.3748 20.8752 58.3332 29.1668 58.3332 29.1668H70.8332V41.6252C70.8748 41.6668 79.1665 41.6252 79.1665 41.6252V29.1668H91.6665V20.8335H79.1665V8.3335ZM29.1665 37.5002H62.4998V45.8335H29.1665V37.5002ZM29.1665 50.0002V58.3335H62.4998V50.0002H49.9998H29.1665ZM29.1665 62.5002H62.4998V70.8335H29.1665V62.5002Z" fill="#FFB800"/>
</svg>
