<svg width="35" height="35" viewBox="0 0 35 35" fill="none" xmlns="http://www.w3.org/2000/svg">
<path d="M15.2196 8.71289C16.8942 8.71289 18.5003 9.37814 19.6844 10.5623C20.8686 11.7465 21.5338 13.3525 21.5338 15.0272C21.5338 16.5912 20.9607 18.0289 20.0184 19.1363L20.2807 19.3986H21.0481L25.9053 24.2557L24.4481 25.7129L19.591 20.8557V20.0883L19.3287 19.826C18.2213 20.7683 16.7836 21.3415 15.2196 21.3415C13.5449 21.3415 11.9388 20.6762 10.7547 19.4921C9.57053 18.3079 8.90527 16.7018 8.90527 15.0272C8.90527 13.3525 9.57053 11.7465 10.7547 10.5623C11.9388 9.37814 13.5449 8.71289 15.2196 8.71289ZM15.2196 10.6557C12.791 10.6557 10.8481 12.5986 10.8481 15.0272C10.8481 17.4557 12.791 19.3986 15.2196 19.3986C17.6481 19.3986 19.591 17.4557 19.591 15.0272C19.591 12.5986 17.6481 10.6557 15.2196 10.6557Z" fill="#56C568"/>
</svg>
