<svg width="532" height="401" viewBox="0 0 532 401" fill="none" xmlns="http://www.w3.org/2000/svg">
<g clip-path="url(#clip0)">
<path opacity="0.4" d="M448.462 154.688C455.494 154.688 461.194 148.979 461.194 141.936C461.194 134.893 455.494 129.184 448.462 129.184C441.43 129.184 435.73 134.893 435.73 141.936C435.73 148.979 441.43 154.688 448.462 154.688Z" fill="#008751"/>
<path opacity="0.4" d="M180.018 84.5308C190.042 84.5308 198.168 76.3919 198.168 66.3522C198.168 56.3124 190.042 48.1736 180.018 48.1736C169.994 48.1736 161.868 56.3124 161.868 66.3522C161.868 76.3919 169.994 84.5308 180.018 84.5308Z" fill="#008751"/>
<path opacity="0.4" d="M146.428 87.7867C153.459 87.7867 159.16 82.0773 159.16 75.0345C159.16 67.9917 153.459 62.2823 146.428 62.2823C139.396 62.2823 133.696 67.9917 133.696 75.0345C133.696 82.0773 139.396 87.7867 146.428 87.7867Z" fill="#008751"/>
<path d="M459.126 284.538C449.065 295.57 448.7 311.639 448.7 311.639C448.7 311.639 464.646 309.823 474.706 298.792C484.766 287.76 485.131 271.691 485.131 271.691C485.131 271.691 469.186 273.507 459.126 284.538Z" fill="#3F3D56"/>
<path d="M464.808 287.713C461.764 302.339 448.968 312.039 448.968 312.039C448.968 312.039 441.107 298.026 444.151 283.4C447.196 268.774 459.992 259.073 459.992 259.073C459.992 259.073 467.853 273.087 464.808 287.713Z" fill="#1FEDA3"/>
<path d="M451.743 136.791V311.148L393.715 359.159H96.8521V176.379L183.472 136.791H451.743Z" fill="#3F3D56"/>
<path opacity="0.1" d="M451.743 136.791V137.49L430.911 151.455L393.715 176.379H96.8521L183.472 136.791H451.743Z" fill="black"/>
<path opacity="0.1" d="M451.742 136.791V311.148L393.715 359.159L394.136 175.958L430.911 151.455L451.406 136.791H451.742Z" fill="black"/>
<path d="M373.532 160.797H192.723L206.179 153.216H379.419L373.532 160.797Z" fill="#2F2E41"/>
<path d="M529.583 368.643C529.583 368.643 533.088 383.324 529.902 383.962C526.715 384.601 511.101 384.395 507.277 385.033C503.453 385.671 495.487 384.601 495.487 381.728C495.487 378.856 503.772 376.941 503.772 376.941C503.772 376.941 515.562 370.558 515.881 370.239C516.199 369.919 529.583 368.643 529.583 368.643Z" fill="#2F2E41"/>
<path d="M526.715 282.15C526.715 282.15 525.759 293.002 525.759 293.959C525.759 294.917 526.715 309.917 525.759 310.556C524.803 311.194 526.396 315.662 526.396 317.258C526.396 318.854 531.495 345.344 530.22 355.557C528.946 365.77 532.132 364.813 531.176 365.77C530.22 366.728 530.22 366.728 530.22 368.643C530.22 370.558 520.023 372.153 520.023 372.153L508.87 301.619L514.606 280.555L526.715 282.15Z" fill="#575A89"/>
<path opacity="0.1" d="M526.715 282.15C526.715 282.15 525.759 293.002 525.759 293.959C525.759 294.917 526.715 309.917 525.759 310.556C524.803 311.194 526.396 315.662 526.396 317.258C526.396 318.854 531.495 345.344 530.22 355.557C528.946 365.77 532.132 364.813 531.176 365.77C530.22 366.728 530.22 366.728 530.22 368.643C530.22 370.558 520.023 372.153 520.023 372.153L508.87 301.619L514.606 280.555L526.715 282.15Z" fill="black"/>
<path d="M525.122 373.111C525.122 373.111 528.308 384.601 525.122 385.239C521.935 385.877 506.321 384.508 502.497 385.146C498.673 385.784 490.707 385.877 490.707 383.005C490.707 380.132 498.992 378.217 498.992 378.217C498.992 378.217 510.782 371.834 511.101 371.515C511.419 371.196 525.122 373.111 525.122 373.111Z" fill="#2F2E41"/>
<path d="M529.583 269.384C529.583 269.384 533.407 278.64 528.946 283.427C524.485 288.214 519.386 297.789 519.386 298.428C519.386 299.066 528.308 362.579 527.034 366.728C525.759 370.877 526.078 373.43 526.396 374.068C526.715 374.707 523.21 378.217 519.386 378.217C515.562 378.217 509.826 375.345 509.189 372.792C508.552 370.238 510.145 348.216 509.826 344.067C509.508 339.918 507.914 333.854 507.277 332.578C506.64 331.301 503.135 330.024 502.497 326.194C501.86 322.365 496.761 273.533 498.355 271.937C499.948 270.341 529.583 269.384 529.583 269.384Z" fill="#575A89"/>
<path d="M505.365 195.977C511.349 195.977 516.199 191.119 516.199 185.126C516.199 179.133 511.349 174.274 505.365 174.274C499.381 174.274 494.531 179.133 494.531 185.126C494.531 191.119 499.381 195.977 505.365 195.977Z" fill="#FFB9B9"/>
<path d="M512.057 190.551C512.057 190.551 509.826 202.36 511.419 203.637C513.013 204.914 499.31 206.829 499.31 206.829C499.31 206.829 497.717 191.19 497.399 189.594C497.08 187.998 512.057 190.551 512.057 190.551Z" fill="#FFB9B9"/>
<path d="M497.399 205.871C497.399 205.871 501.223 194.701 516.837 197.892C516.837 197.892 519.705 198.85 518.749 199.807C517.793 200.765 516.837 200.765 518.111 201.722C519.386 202.68 520.979 201.722 520.023 202.68C519.067 203.637 528.627 209.382 527.99 220.233C527.352 231.085 530.22 246.404 527.99 248.958C525.759 251.511 529.583 262.682 528.946 264.916C528.308 267.15 532.769 270.022 530.858 270.98C528.946 271.937 494.531 277.682 493.575 270.98C492.619 264.277 493.256 269.065 492.3 267.469C491.344 265.873 491.026 263.001 491.663 259.49C492.3 255.979 493.893 247.362 493.256 244.17C492.619 240.979 493.256 214.169 495.168 210.978C497.08 207.786 497.399 205.871 497.399 205.871Z" fill="#1FEDA3"/>
<path d="M504.09 283.746C504.09 283.746 508.87 301.938 502.816 301.938C496.761 301.938 497.08 283.108 497.08 283.108L504.09 283.746Z" fill="#FFB9B9"/>
<path d="M500.585 185.126C500.585 186.051 501.924 186.639 503.998 186.773H504.001C504.881 186.823 505.763 186.806 506.64 186.722C507.965 186.6 508.513 187.848 508.74 189.495C509.109 192.211 508.593 196.019 509.189 196.616C510.011 197.439 516.005 196.612 517.879 194.745C518.17 194.483 518.365 194.13 518.43 193.743C518.627 192.603 519.188 191.558 520.03 190.765C521.135 189.556 522.709 188.215 524.484 186.083C527.671 182.253 524.484 181.934 523.528 179.062C522.573 176.189 520.979 175.232 520.979 173.317C520.979 171.402 513.65 169.806 507.596 170.125C501.541 170.444 502.816 178.104 502.816 178.104C502.816 178.104 502.456 179.03 502.026 180.223C501.444 181.721 500.971 183.259 500.611 184.826C500.596 184.925 500.587 185.025 500.585 185.126Z" fill="#2F2E41"/>
<path opacity="0.1" d="M501.86 210.659C501.86 210.659 512.694 210.02 513.65 225.978C514.606 241.936 514.287 256.937 514.287 257.256C514.287 257.575 509.826 287.895 505.684 287.895C501.541 287.895 498.355 287.257 497.399 285.661C496.443 284.065 499.948 261.086 499.948 261.086C499.948 261.086 501.541 236.83 498.992 229.17C496.443 221.51 496.124 211.616 501.86 210.659Z" fill="black"/>
<path d="M500.266 209.063C500.266 209.063 511.101 208.424 512.057 224.382C513.013 240.34 512.694 255.341 512.694 255.66C512.694 255.979 508.233 286.299 504.09 286.299C499.948 286.299 496.761 285.661 495.805 284.065C494.849 282.47 498.355 259.49 498.355 259.49C498.355 259.49 499.948 235.234 497.399 227.574C494.849 219.914 494.531 210.02 500.266 209.063Z" fill="#1FEDA3"/>
<path d="M320.61 53.0534C320.61 53.0534 315.889 39.6542 312.479 43.8579C309.069 48.0616 317.725 55.1552 317.725 55.1552L320.61 53.0534Z" fill="#A0616A"/>
<path d="M342.907 39.917L340.067 40.9713C340.067 40.9713 338.71 47.0106 339.235 48.0615C339.759 49.1125 340.021 48.3243 339.235 50.4261C338.448 52.5279 336.087 58.0452 335.824 58.8334C335.562 59.6216 320.61 53.8416 320.61 50.9516C320.61 50.9516 317.463 54.6298 315.889 55.4179C315.889 55.4179 333.201 68.0289 335.562 69.6053C337.923 71.1817 339.235 70.3935 341.333 68.5544C343.432 66.7153 352.35 51.477 352.35 51.477L342.907 39.917Z" fill="#575A89"/>
<path d="M335.3 133.186C335.3 133.186 335.562 136.076 336.087 136.338C336.612 136.601 340.546 143.169 336.087 144.483C331.628 145.796 329.005 145.271 327.955 145.797C326.906 146.322 308.544 147.373 308.282 144.483C308.02 141.593 317.201 141.067 317.201 141.067C317.201 141.067 325.595 135.55 326.906 132.66C328.218 129.77 335.3 133.186 335.3 133.186Z" fill="#2F2E41"/>
<path d="M388.55 138.44C388.55 138.44 394.845 149.212 393.271 150.526C391.697 151.839 376.37 156.627 374.122 156.831C371.237 157.094 369.138 154.729 371.499 153.416C373.86 152.102 378.844 146.585 378.844 144.746V140.017L388.55 138.44Z" fill="#2F2E41"/>
<path d="M394.583 68.0289C394.583 68.0289 400.091 74.8599 391.435 85.8945L377.008 104.285C377.008 104.285 385.926 118.473 386.189 125.829C386.451 133.186 388.287 131.609 388.812 134.762C389.336 137.915 391.697 136.338 389.861 138.703C388.025 141.067 381.205 143.169 379.106 141.33C378.384 140.669 377.821 139.853 377.457 138.943C377.094 138.033 376.94 137.053 377.008 136.076C377.008 135.025 373.335 128.982 373.073 127.143C372.811 125.304 363.105 110.328 363.105 110.328C363.105 110.328 359.957 101.395 363.63 96.4036C367.302 91.4118 369.729 84.3319 369.729 84.3319C369.729 84.3319 358.908 97.4545 351.301 100.607C351.301 100.607 348.416 101.133 348.94 102.446C349.465 103.76 348.94 104.548 348.153 105.862C347.366 107.176 341.858 122.414 340.022 126.355C338.185 130.296 338.972 132.66 336.874 133.974C334.775 135.287 325.332 134.237 325.332 132.923C325.332 131.609 326.644 128.194 327.431 126.355C328.217 124.516 334.513 103.235 333.988 99.5564C333.464 95.8782 334.251 90.8863 338.185 88.7845C342.12 86.6827 362.056 69.6053 363.105 69.6053C364.154 69.6053 394.583 68.0289 394.583 68.0289Z" fill="#2F2E41"/>
<path d="M341.858 26.7806C347.942 26.7806 352.875 21.8402 352.875 15.746C352.875 9.65172 347.942 4.71136 341.858 4.71136C335.773 4.71136 330.841 9.65172 330.841 15.746C330.841 21.8402 335.773 26.7806 341.858 26.7806Z" fill="#A0616A"/>
<path d="M350.777 16.7969C350.777 16.7969 354.187 22.8396 358.384 23.6278C362.581 24.4161 347.366 36.5015 347.366 36.5015C347.366 36.5015 343.694 24.9415 340.546 24.416C337.398 23.8906 350.777 16.7969 350.777 16.7969Z" fill="#A0616A"/>
<path d="M340.021 41.4933C340.021 44.9088 350.252 54.6298 350.252 54.6298L359.957 62.7743C359.957 62.7743 360.22 65.6644 361.269 65.9271C362.318 66.1898 363.63 66.1898 362.58 67.7662C361.531 69.3425 358.908 72.758 361.269 73.2835C361.981 73.3919 362.698 73.4603 363.417 73.4884C364.047 73.5252 364.786 73.5593 365.618 73.5909C367.559 73.6592 369.988 73.7038 372.619 73.6854C373.367 73.6828 374.127 73.6741 374.901 73.6592C384.819 73.4621 396.309 72.3193 395.37 68.5544C393.796 62.2489 394.845 60.1471 391.435 56.7316C388.025 53.3161 382.516 41.4933 382.516 41.4933C382.516 41.4933 371.499 22.8396 362.318 22.8396L360.411 22.3378C359.525 22.104 358.588 22.1553 357.732 22.4844C356.877 22.8135 356.147 23.4038 355.645 24.1716C353.803 26.9802 350.9 31.1996 349.202 32.5605C346.579 34.6624 346.17 33.1543 346.17 33.1543C346.17 33.1543 340.021 38.0779 340.021 41.4933Z" fill="#575A89"/>
<path d="M363.367 81.4281C363.367 81.4281 355.76 93.2509 360.482 95.3527C365.204 97.4545 367.827 83.0044 367.827 83.0044L363.367 81.4281Z" fill="#A0616A"/>
<path d="M349.06 14.4996C348.637 14.4461 348.504 13.9118 348.432 13.4909C348.051 11.2372 346.374 9.09999 344.121 8.73617C343.26 8.62142 342.384 8.69211 341.553 8.94351C340.361 9.27098 339.243 9.82238 338.257 10.5683C337.774 11.01 337.216 11.3609 336.61 11.6042C336.196 11.7258 334.441 12.5074 334.031 12.6397C333.129 12.9304 332.383 13.8757 331.454 13.6886C330.566 13.5095 330.228 12.4349 330.086 11.5386C329.76 9.49642 330.927 6.44937 332.088 4.73883C332.968 3.44078 334.458 2.69374 335.948 2.20774C337.693 1.67711 339.487 1.32021 341.302 1.14221C343.752 0.852342 346.291 0.69855 348.639 1.45722C350.987 2.21589 353.126 4.07178 353.564 6.50394C353.656 7.01058 353.673 7.52952 353.785 8.032C354.058 9.2578 354.867 10.2882 355.34 11.4516C355.681 12.306 355.839 13.2225 355.804 14.1419C355.77 15.0613 355.543 15.9633 355.139 16.7896C354.485 18.1071 353.348 19.3732 353.593 20.8239L351.569 19.2252C351.276 19.0587 351.05 18.7968 350.927 18.4832C350.804 18.1695 350.792 17.8231 350.893 17.5018L351.187 14.9631C351.289 14.5032 351.243 14.0228 351.056 13.5906C350.156 12.0165 349.765 14.5887 349.06 14.4996Z" fill="#2F2E41"/>
<path opacity="0.1" d="M368.089 63.2998L365.618 73.5909C368.11 73.6802 371.407 73.7275 374.901 73.6592C375.783 71.0109 376.625 68.2496 377.27 65.6644C379.631 56.2062 375.696 41.7561 373.598 34.9251C371.499 28.0942 366.253 26.2551 366.253 26.2551C364.102 27.0127 362.07 28.0743 360.22 29.4078C356.81 31.7724 368.089 63.2998 368.089 63.2998Z" fill="black"/>
<path opacity="0.1" d="M365.991 62.7743L363.417 73.4884C364.047 73.5252 364.786 73.5593 365.618 73.5909C367.559 73.6592 369.988 73.7038 372.619 73.6854C373.566 70.8716 374.482 67.9028 375.172 65.1389C377.532 55.6807 373.598 41.2306 371.499 34.3997C369.401 27.5687 364.81 35.0565 364.81 35.0565C364.81 35.0565 366.646 30.5901 363.236 32.9546C359.826 35.3192 365.991 62.7743 365.991 62.7743Z" fill="black"/>
<path d="M365.204 25.7296C365.204 25.7296 370.45 27.5687 372.548 34.3997C374.647 41.2306 378.582 55.6807 376.221 65.1389C373.86 74.5971 368.876 86.4199 368.876 86.4199C368.876 86.4199 363.892 82.7417 362.056 83.5299L367.04 62.7744C367.04 62.7744 355.76 31.247 359.17 28.8824C361.021 27.5489 363.053 26.4872 365.204 25.7296Z" fill="#575A89"/>
<path d="M369.114 157.512L296.54 6.03986L175.192 64.3649L219.821 157.512H369.114Z" fill="#F2F2F2"/>
<path d="M271.981 65.4962L207.529 96.4746L209.449 100.481L273.901 69.503L271.981 65.4962Z" fill="#3F3D56"/>
<path d="M289.046 101.112L224.593 132.091L226.513 136.098L290.966 105.119L289.046 101.112Z" fill="#3F3D56"/>
<path d="M300.768 44.5397L284.766 52.2309L292.445 68.2583L308.447 60.5671L300.768 44.5397Z" fill="#3F3D56"/>
<path d="M317.833 80.1561L301.831 87.8473L309.51 103.875L325.512 96.1834L317.833 80.1561Z" fill="#3F3D56"/>
<path d="M301.871 33.4382L295.28 52.2184L286.397 49.0909L285.181 52.5552L297.512 56.8957L305.329 34.6558L301.871 33.4382Z" fill="#57B894"/>
<path d="M318.935 69.0544L312.345 87.8346L303.462 84.7077L302.246 88.1714L314.576 92.5119L322.394 70.272L318.935 69.0544Z" fill="#57B894"/>
<path d="M7.00382 331.847L39.792 324.832L32.7882 291.992L-6.16546e-06 299.007L7.00382 331.847Z" fill="#F2F2F2"/>
<path d="M38.88 283.218C38.88 283.218 26.8369 291.833 30.8512 295.28C34.8656 298.726 42.8944 284.941 42.8944 284.941L38.88 283.218Z" fill="#FFB9B9"/>
<path d="M94.508 296.429C94.508 296.429 92.2141 325.148 91.6406 329.169C91.0671 333.19 90.4936 369.376 89.3466 373.397C88.1997 377.418 87.0527 387.183 87.0527 387.183H80.1709C80.1709 387.183 80.7444 369.376 79.0239 362.484C77.3035 355.591 77.877 336.636 77.877 336.636C77.877 336.636 74.4361 302.747 76.1565 298.152C77.877 293.557 94.508 296.429 94.508 296.429Z" fill="#FFB9B9"/>
<path d="M85.3322 385.459C85.3322 385.459 88.1997 387.182 88.1997 388.331C88.1997 389.48 87.6262 392.352 88.1997 393.501C88.7732 394.65 92.7876 399.245 90.4936 400.394C88.1997 401.542 77.877 400.394 77.877 400.394C77.877 400.394 78.4504 392.352 79.0239 391.778C79.5974 391.203 78.4504 385.459 78.4504 385.459H85.3322Z" fill="#2F2E41"/>
<path d="M50.6684 295.725C50.6684 295.725 49.9399 324.527 50.0888 328.586C50.2378 332.644 47.0157 368.692 47.735 372.811C48.4542 376.93 48.5715 386.761 48.5715 386.761L55.4153 387.485C55.4153 387.485 56.7111 369.717 59.1444 363.043C61.5777 356.369 62.9939 337.458 62.9939 337.458C62.9939 337.458 69.9674 304.118 68.738 299.368C67.5086 294.617 50.6684 295.725 50.6684 295.725Z" fill="#FFB9B9"/>
<path d="M50.4633 385.228C50.4633 385.228 47.4311 386.641 47.3107 387.783C47.1903 388.925 47.4597 391.842 46.7689 392.924C46.0782 394.006 41.6045 398.154 43.7653 399.537C45.9262 400.921 56.3123 400.864 56.3123 400.864C56.3123 400.864 56.5847 392.806 56.0746 392.175C55.5645 391.543 57.3071 385.952 57.3071 385.952L50.4633 385.228Z" fill="#2F2E41"/>
<path d="M86.4794 253.349C86.4794 253.349 91.0673 253.924 92.7878 263.688C94.5082 273.453 100.817 298.152 95.6552 299.875C90.4938 301.598 75.0097 305.044 74.4363 303.896C73.8628 302.747 72.7158 299.875 72.7158 299.875C72.7158 299.875 74.4363 305.044 72.1423 305.044C69.8484 305.044 47.4825 301.598 48.056 299.875C48.6295 298.152 49.7764 285.515 49.7764 285.515C49.7764 285.515 53.2173 264.263 56.6582 260.816C57.6541 259.859 58.4272 258.693 58.9228 257.403C59.4183 256.112 59.6242 254.728 59.5257 253.349H86.4794Z" fill="#2F2E41"/>
<path d="M95.0815 248.754C95.0815 248.754 87.6262 247.031 86.4792 249.328C85.3323 251.626 89.3466 255.072 91.0671 255.072C92.7876 255.072 95.655 253.349 95.655 253.349L95.0815 248.754Z" fill="#FFB9B9"/>
<path d="M79.5976 199.931C85.2987 199.931 89.9203 195.302 89.9203 189.592C89.9203 183.882 85.2987 179.253 79.5976 179.253C73.8965 179.253 69.2749 183.882 69.2749 189.592C69.2749 195.302 73.8965 199.931 79.5976 199.931Z" fill="#FFB9B9"/>
<path d="M77.8771 197.059C77.8771 197.059 76.1567 205.1 77.3036 205.1C78.4506 205.1 68.7014 210.27 68.7014 210.27L61.2461 209.121L58.9521 205.675C58.9521 205.675 70.9953 197.633 70.9953 193.038C70.9953 188.443 77.8771 197.059 77.8771 197.059Z" fill="#FFB9B9"/>
<path d="M72.7157 205.1C72.7157 205.1 74.4361 203.951 75.0097 203.951H79.5975C80.171 203.951 87.6263 205.675 87.6263 205.675L92.2142 231.522C92.2142 231.522 84.1854 244.733 89.9203 255.072C89.9203 255.072 88.1998 253.924 80.171 254.498C72.1422 255.072 57.8051 256.795 57.2316 256.795C56.6581 256.795 56.6582 252.2 57.2316 251.052C57.8051 249.903 56.6582 250.477 56.6582 247.605C56.6582 244.733 54.9377 239.564 54.9377 239.564L46.9089 210.27C46.9089 210.27 57.2317 204.526 58.9521 205.1C60.6726 205.675 65.8339 207.398 66.9809 206.823C68.1279 206.249 72.7157 205.1 72.7157 205.1Z" fill="#1FEDA3"/>
<path d="M85.9058 206.249L87.6262 205.675C87.6262 205.675 91.0671 205.1 95.0815 208.547C99.0959 211.993 114.007 222.332 114.007 222.332C114.007 222.332 119.741 226.927 118.021 232.097C116.3 237.266 113.433 249.903 104.831 249.328C104.831 249.328 99.6694 256.221 96.802 255.072C93.9346 253.924 91.6406 249.328 93.3611 248.754C95.0815 248.18 99.6694 242.436 99.6694 242.436L93.9346 231.522H92.2141L85.9058 228.076L85.9058 206.249Z" fill="#1FEDA3"/>
<path d="M51.4968 209.695L46.9089 210.27C46.9089 210.27 42.8945 211.993 43.468 219.46C44.0415 226.927 40.0271 260.816 41.7476 264.837C41.7476 264.837 36.0128 284.366 37.1597 284.941C38.3067 285.515 45.1885 288.961 44.615 286.664C44.0415 284.366 50.9233 268.283 50.9233 268.283C50.9233 268.283 58.9521 259.667 55.5112 247.605V237.841L51.4968 209.695Z" fill="#1FEDA3"/>
<path d="M88.1888 199.588L80.8983 201.178L79.9614 197.583L80.3217 201.304L68.5606 203.87L68.0433 201.886L68.2421 203.94L60.7092 205.584L59.0978 190.09C57.4411 183.733 63.4875 176.957 69.835 175.297L72.651 174.561C77.3131 173.343 85.7875 174.451 87.0042 179.12C84.8746 187.261 81.2441 196.186 88.1888 199.588Z" fill="#2F2E41"/>
</g>
<defs>
<clipPath id="clip0">
<rect width="531.358" height="400" fill="white" transform="translate(0 0.904114)"/>
</clipPath>
</defs>
</svg>
