<svg width="494" height="308" viewBox="0 0 494 308" fill="none" xmlns="http://www.w3.org/2000/svg">
<path d="M441.365 706.214C433.477 706.208 425.694 704.423 418.593 700.987C411.49 697.552 405.252 692.555 400.343 686.371C385.154 669.938 267.759 554.407 195.822 483.969C190.844 479.161 186.864 473.414 184.111 467.057C181.359 460.703 179.889 453.864 179.786 446.937C179.683 440.009 180.949 433.129 183.51 426.693C186.072 420.257 189.879 414.394 194.712 409.438C199.545 404.485 205.309 400.537 211.671 397.822C218.034 395.108 224.869 393.685 231.784 393.628C238.698 393.572 245.556 394.888 251.96 397.498C258.366 400.112 264.191 403.966 269.103 408.843C269.616 409.347 321.426 460.083 372.848 510.765L388.96 526.65V279.94C388.96 183.997 311.693 105.941 216.714 105.941C121.736 105.941 44.4691 183.997 44.4691 279.94V653.687C44.4691 667.617 38.9459 680.977 29.1149 690.826C19.2838 700.676 5.94981 706.208 -7.9535 706.208C-21.8568 706.208 -35.1905 700.676 -45.0216 690.826C-54.8527 680.977 -60.3758 667.617 -60.3758 653.687V279.94C-60.3758 126.073 63.9259 0.894043 216.714 0.894043C369.501 0.894043 493.804 126.073 493.804 279.94V653.687C493.798 667.617 488.272 680.977 478.438 690.829C468.605 700.679 455.27 706.211 441.365 706.214ZM393.706 675.511L393.728 675.558L393.706 675.511Z" fill="#D3FFEF"/>
<path d="M216.718 330.426C249.807 330.426 276.629 303.552 276.629 270.4C276.629 237.247 249.807 210.372 216.718 210.372C183.629 210.372 156.806 237.247 156.806 270.4C156.806 303.552 183.629 330.426 216.718 330.426Z" fill="#D3FFEF"/>
</svg>
