<svg width="19" height="18" viewBox="0 0 19 18" fill="none" xmlns="http://www.w3.org/2000/svg">
<path d="M1.54054 7.2C0.688108 7.2 0 8.004 0 9C0 9.996 0.688108 10.8 1.54054 10.8C2.39297 10.8 3.08108 9.996 3.08108 9C3.08108 8.004 2.39297 7.2 1.54054 7.2ZM1.54054 0C0.688108 0 0 0.804 0 1.8C0 2.796 0.688108 3.6 1.54054 3.6C2.39297 3.6 3.08108 2.796 3.08108 1.8C3.08108 0.804 2.39297 0 1.54054 0ZM1.54054 14.4C0.688108 14.4 0 15.216 0 16.2C0 17.184 0.698378 18 1.54054 18C2.3827 18 3.08108 17.184 3.08108 16.2C3.08108 15.216 2.39297 14.4 1.54054 14.4ZM4.62162 17.4H19V15H4.62162V17.4ZM4.62162 10.2H19V7.8H4.62162V10.2ZM4.62162 0.6V3H19V0.6H4.62162Z" fill="black"/>
</svg>
