<svg width="40" height="41" viewBox="0 0 40 41" fill="none" xmlns="http://www.w3.org/2000/svg">
<path d="M20.0001 0.924561C8.95429 0.924561 0.00012207 9.87873 0.00012207 20.9246C0.00012207 31.9704 8.95429 40.9246 20.0001 40.9246C31.046 40.9246 40.0001 31.9704 40.0001 20.9246C40.0001 9.87873 31.046 0.924561 20.0001 0.924561ZM28.1355 17.3079C28.1439 17.4787 28.146 17.6496 28.146 17.8162C28.146 23.0246 24.1855 29.0266 16.9397 29.0266C14.7987 29.0302 12.7021 28.4153 10.9022 27.2558C11.2085 27.2933 11.523 27.3079 11.8418 27.3079C13.6876 27.3079 15.3855 26.6808 16.7335 25.6225C15.912 25.6063 15.1161 25.3343 14.4566 24.8444C13.7971 24.3544 13.3069 23.6709 13.0543 22.8891C13.6442 23.0013 14.2519 22.9778 14.8314 22.8204C13.9398 22.6401 13.138 22.157 12.562 21.453C11.986 20.749 11.6712 19.8675 11.671 18.9579V18.91C12.2022 19.2037 12.8105 19.3829 13.4564 19.4037C12.6205 18.8473 12.0288 17.9926 11.8023 17.0144C11.5758 16.0362 11.7315 15.0084 12.2376 14.1412C13.2271 15.3579 14.4611 16.3532 15.8596 17.0627C17.2582 17.7722 18.7902 18.1801 20.3564 18.26C20.1573 17.4148 20.243 16.5275 20.6001 15.736C20.9573 14.9446 21.566 14.2933 22.3315 13.8834C23.097 13.4736 23.9765 13.3281 24.8332 13.4697C25.6899 13.6113 26.4759 14.0319 27.0689 14.6662C27.9505 14.4918 28.7959 14.1684 29.5689 13.71C29.275 14.6228 28.6599 15.3978 27.8376 15.8912C28.6186 15.7972 29.3811 15.5872 30.1001 15.2683C29.572 16.0598 28.9067 16.7505 28.1355 17.3079Z" fill="white"/>
</svg>
