<svg width="30" height="39" viewBox="0 0 30 39" fill="none" xmlns="http://www.w3.org/2000/svg">
<path d="M22.1429 21.5899C24.2267 21.5899 26.2252 22.4998 27.6987 24.1193C29.1722 25.7389 30 27.9355 30 30.2259C30 32.5163 29.1722 34.7129 27.6987 36.3325C26.2252 37.952 24.2267 38.8619 22.1429 38.8619C20.059 38.8619 18.0605 37.952 16.587 36.3325C15.1135 34.7129 14.2857 32.5163 14.2857 30.2259C14.2857 27.9355 15.1135 25.7389 16.587 24.1193C18.0605 22.4998 20.059 21.5899 22.1429 21.5899ZM14.2857 2.3825e-08C15.6571 -0.00013549 16.9764 0.577829 17.9717 1.61483C18.967 2.65184 19.5626 4.06891 19.6357 5.57413L19.6429 5.88816H27.5C27.7715 5.88825 28.0328 6.0016 28.2311 6.2053C28.4295 6.40899 28.5501 6.68785 28.5686 6.98553C28.5871 7.28321 28.5021 7.5775 28.3308 7.80896C28.1595 8.04041 27.9146 8.19177 27.6457 8.23244L27.5 8.24343H25.9871L25.0814 20.5411C24.3962 20.2901 23.6866 20.1283 22.9671 20.059L23.8386 8.24343H4.73286L6.46286 31.6893C6.52818 32.574 6.8941 33.3993 7.48782 34.0009C8.08155 34.6026 8.85958 34.9366 9.66714 34.9364L13.9043 34.938C14.3143 35.8032 14.8343 36.5961 15.4429 37.2933L9.66714 37.2917C8.32121 37.2918 7.02455 36.735 6.0351 35.7322C5.04564 34.7293 4.43589 33.3538 4.32714 31.8793L2.58286 8.24343H1.07143C0.812518 8.24342 0.562369 8.14036 0.367242 7.95331C0.172116 7.76626 0.0452118 7.50788 0.00999996 7.22595L0 7.0658C1.09184e-05 6.78122 0.0937755 6.50628 0.263953 6.29181C0.434131 6.07734 0.669209 5.93786 0.925714 5.89915L1.07143 5.88816H8.92857C8.92857 4.32653 9.49298 2.82885 10.4976 1.7246C11.5023 0.620358 12.8649 2.3825e-08 14.2857 2.3825e-08ZM18.6057 26.3381C18.4718 26.4854 18.3966 26.685 18.3966 26.8932C18.3966 27.1014 18.4718 27.301 18.6057 27.4483L21.1329 30.2275L18.6086 33.0004C18.4744 33.1476 18.399 33.3474 18.3989 33.5557C18.3988 33.764 18.4739 33.9639 18.6079 34.1113C18.7418 34.2587 18.9235 34.3416 19.1131 34.3418C19.3026 34.3419 19.4844 34.2593 19.6186 34.1121L22.1429 31.3376L24.6714 34.1152C24.7373 34.1902 24.8161 34.25 24.9033 34.2912C24.9904 34.3323 25.0842 34.354 25.179 34.3549C25.2738 34.3558 25.3679 34.3359 25.4557 34.2964C25.5435 34.257 25.6232 34.1987 25.6903 34.125C25.7573 34.0513 25.8104 33.9636 25.8463 33.8671C25.8822 33.7706 25.9003 33.6672 25.8995 33.563C25.8986 33.4588 25.8789 33.3557 25.8415 33.26C25.8041 33.1642 25.7496 33.0775 25.6814 33.0051L23.1543 30.2259L25.6843 27.4467C25.8144 27.2986 25.8864 27.1003 25.8848 26.8945C25.8831 26.6886 25.808 26.4917 25.6756 26.3461C25.5432 26.2006 25.364 26.118 25.1767 26.1162C24.9894 26.1144 24.809 26.1936 24.6743 26.3366L22.1443 29.1158L19.6157 26.3366C19.4818 26.1894 19.3001 26.1067 19.1107 26.1067C18.9213 26.1067 18.7397 26.1894 18.6057 26.3366V26.3381ZM14.2857 2.35527C13.4712 2.35516 12.6871 2.69489 12.0918 3.3058C11.4964 3.91672 11.1343 4.75326 11.0786 5.64636L11.0714 5.88816H17.5L17.4929 5.64636C17.4371 4.75326 17.075 3.91672 16.4796 3.3058C15.8843 2.69489 15.1002 2.35516 14.2857 2.35527Z" fill="black"/>
</svg>
