<svg width="50" height="40" viewBox="0 0 50 40" fill="none" xmlns="http://www.w3.org/2000/svg">
<path d="M49.4972 4.75011C47.6943 5.54954 45.7571 6.08983 43.7238 6.33289C45.7994 5.08887 47.3931 3.11892 48.1435 0.771741C46.1704 1.94262 44.0116 2.76758 41.7605 3.21098C39.9268 1.25748 37.3146 0.0366211 34.4233 0.0366211C28.8719 0.0366211 24.371 4.53729 24.371 10.0883C24.371 10.8762 24.46 11.6433 24.6313 12.3792C16.2773 11.9599 8.87057 7.95815 3.91267 1.87662C3.0476 3.36121 2.55191 5.0881 2.55191 6.93002C2.55191 10.4175 4.32664 13.494 7.02368 15.2967C5.42741 15.2467 3.86626 14.8156 2.47057 14.0393C2.46999 14.0814 2.46999 14.1235 2.46999 14.1658C2.46999 19.036 5.93487 23.0988 10.5331 24.0223C9.05293 24.4248 7.50029 24.4837 5.99382 24.1945C7.27286 28.188 10.9852 31.094 15.3837 31.1754C11.9435 33.8713 7.60913 35.4783 2.89985 35.4783C2.08836 35.4783 1.28836 35.4307 0.501953 35.3379C4.95037 38.1899 10.234 39.854 15.9106 39.854C34.3999 39.854 44.5104 24.5371 44.5104 11.254C44.5104 10.8181 44.5008 10.3846 44.4813 9.95356C46.4492 8.53095 48.1477 6.7689 49.4972 4.75011Z" fill="#55ACEE"/>
</svg>
