<svg width="17" height="17" viewBox="0 0 17 17" fill="none" xmlns="http://www.w3.org/2000/svg">
<path d="M6.4619 0.879395C8.03804 0.879395 9.54963 1.50551 10.6641 2.62002C11.7786 3.73452 12.4048 5.24611 12.4048 6.82225C12.4048 8.29425 11.8653 9.64739 10.9785 10.6897L11.2253 10.9365H11.9476L16.519 15.508L15.1476 16.8794L10.5762 12.308V11.5857L10.3293 11.3388C9.28704 12.2257 7.9339 12.7651 6.4619 12.7651C4.88576 12.7651 3.37417 12.139 2.25967 11.0245C1.14516 9.90998 0.519043 8.3984 0.519043 6.82225C0.519043 5.24611 1.14516 3.73452 2.25967 2.62002C3.37417 1.50551 4.88576 0.879395 6.4619 0.879395ZM6.4619 2.70797C4.17619 2.70797 2.34761 4.53654 2.34761 6.82225C2.34761 9.10797 4.17619 10.9365 6.4619 10.9365C8.74761 10.9365 10.5762 9.10797 10.5762 6.82225C10.5762 4.53654 8.74761 2.70797 6.4619 2.70797Z" fill="#686B6F"/>
</svg>
