<svg width="40" height="41" viewBox="0 0 40 41" fill="none" xmlns="http://www.w3.org/2000/svg">
<path d="M20.0001 0.494385C8.95429 0.494385 0.00012207 9.44855 0.00012207 20.4944C0.00012207 31.5402 8.95429 40.4944 20.0001 40.4944C31.046 40.4944 40.0001 31.5402 40.0001 20.4944C40.0001 9.44855 31.046 0.494385 20.0001 0.494385ZM28.1355 16.8777C28.1439 17.0485 28.146 17.2194 28.146 17.3861C28.146 22.5944 24.1855 28.5965 16.9397 28.5965C14.7987 28.6 12.7021 27.9851 10.9022 26.8256C11.2085 26.8631 11.523 26.8777 11.8418 26.8777C13.6876 26.8777 15.3855 26.2506 16.7335 25.1923C15.912 25.1762 15.1161 24.9042 14.4566 24.4142C13.7971 23.9243 13.3069 23.2408 13.0543 22.459C13.6442 22.5711 14.2519 22.5476 14.8314 22.3902C13.9398 22.2099 13.138 21.7268 12.562 21.0229C11.986 20.3189 11.6712 19.4373 11.671 18.5277V18.4798C12.2022 18.7736 12.8105 18.9527 13.4564 18.9736C12.6205 18.4172 12.0288 17.5624 11.8023 16.5842C11.5758 15.606 11.7315 14.5782 12.2376 13.7111C13.2271 14.9277 14.4611 15.923 15.8596 16.6325C17.2582 17.342 18.7902 17.7499 20.3564 17.8298C20.1573 16.9846 20.243 16.0973 20.6001 15.3059C20.9573 14.5144 21.566 13.8631 22.3315 13.4533C23.097 13.0434 23.9765 12.898 24.8332 13.0395C25.6899 13.1811 26.4759 13.6017 27.0689 14.2361C27.9505 14.0616 28.7959 13.7382 29.5689 13.2798C29.275 14.1926 28.6599 14.9677 27.8376 15.4611C28.6186 15.367 29.3811 15.157 30.1001 14.8381C29.572 15.6296 28.9067 16.3203 28.1355 16.8777Z" fill="white"/>
</svg>
