<svg width="38" height="36" viewBox="0 0 38 36" fill="none" xmlns="http://www.w3.org/2000/svg">
<path d="M36.5135 16.8758L17.8675 0.692481C17.7244 0.569096 17.5418 0.5 17.3493 0.5H12.9814C12.6162 0.5 12.4484 0.95406 12.7248 1.19096L30.0087 16.1947H1.12652C0.909365 16.1947 0.731689 16.3723 0.731689 16.5895V19.5508C0.731689 19.7679 0.909365 19.9456 1.12652 19.9456H30.0037L12.7198 34.9493C12.4435 35.1911 12.6113 35.6403 12.9765 35.6403H17.4924C17.5862 35.6403 17.68 35.6057 17.749 35.5415L36.5135 19.2645C36.6844 19.1159 36.8214 18.9324 36.9153 18.7264C37.0092 18.5203 37.0577 18.2966 37.0577 18.0701C37.0577 17.8437 37.0092 17.6199 36.9153 17.4139C36.8214 17.2078 36.6844 17.0243 36.5135 16.8758Z" fill="#E0E0E0"/>
</svg>
