<svg width="12" height="16" viewBox="0 0 12 16" fill="none" xmlns="http://www.w3.org/2000/svg">
<path d="M9.6 7.76C10.6828 6.99429 11.4419 5.73714 11.4419 4.57143C11.4419 1.98857 9.48837 0 6.97674 0H0V16H7.8586C10.1916 16 12 14.0571 12 11.6686C12 9.93143 11.04 8.44571 9.6 7.76ZM3.34884 2.85714H6.69767C7.62419 2.85714 8.37209 3.62286 8.37209 4.57143C8.37209 5.52 7.62419 6.28571 6.69767 6.28571H3.34884V2.85714ZM7.25581 13.1429H3.34884V9.71429H7.25581C8.18233 9.71429 8.93023 10.48 8.93023 11.4286C8.93023 12.3771 8.18233 13.1429 7.25581 13.1429Z" fill="black"/>
</svg>
