<svg width="33" height="33" viewBox="0 0 33 33" fill="none" xmlns="http://www.w3.org/2000/svg">
<circle cx="16.5498" cy="16.709" r="15" stroke="#C4C4C4" stroke-width="2"/>
<path d="M22.3554 12.5551H20.1123L19.5779 11.0584C19.541 10.956 19.4734 10.8675 19.3842 10.8049C19.2951 10.7424 19.1888 10.7089 19.0798 10.709H14.0198C13.7971 10.709 13.5975 10.8491 13.5233 11.0584L12.9873 12.5551H10.7442C10.0153 12.5551 9.4248 13.1452 9.4248 13.8738V21.3903C9.4248 22.1189 10.0153 22.709 10.7442 22.709H22.3554C23.0844 22.709 23.6748 22.1189 23.6748 21.3903V13.8738C23.6748 13.1452 23.0844 12.5551 22.3554 12.5551ZM16.5498 20.0716C15.0918 20.0716 13.9109 18.8914 13.9109 17.4343C13.9109 15.9771 15.0918 14.7969 16.5498 14.7969C18.0078 14.7969 19.1887 15.9771 19.1887 17.4343C19.1887 18.8914 18.0078 20.0716 16.5498 20.0716ZM14.9665 17.4343C14.9665 17.8539 15.1333 18.2564 15.4302 18.5532C15.7271 18.85 16.1299 19.0167 16.5498 19.0167C16.9697 19.0167 17.3725 18.85 17.6694 18.5532C17.9663 18.2564 18.1331 17.8539 18.1331 17.4343C18.1331 17.0146 17.9663 16.6121 17.6694 16.3153C17.3725 16.0186 16.9697 15.8518 16.5498 15.8518C16.1299 15.8518 15.7271 16.0186 15.4302 16.3153C15.1333 16.6121 14.9665 17.0146 14.9665 17.4343Z" fill="#4F4F4F"/>
</svg>
