<svg width="100" height="100" viewBox="0 0 100 100" fill="none" xmlns="http://www.w3.org/2000/svg">
<path d="M56.25 81.25H81.25V87.5H56.25V81.25Z" fill="#EB5757"/>
<path d="M56.25 68.75H93.75V75H56.25V68.75Z" fill="#EB5757"/>
<path d="M56.25 56.25H93.75V62.5H56.25V56.25Z" fill="#EB5757"/>
<path d="M64.2151 35.0531L49.9995 6.25L35.7839 35.0531L3.99951 39.6719L26.9995 62.0938L21.5683 93.75L43.7495 82.0906V75.0281L29.8714 82.325L33.1589 63.15L33.7151 59.9094L31.362 57.6187L17.4308 44.0344L36.6839 41.2375L39.9339 40.7656L41.3901 37.8188L49.9995 20.3719L58.6089 37.8188L60.0651 40.7656L63.3151 41.2375L86.6089 44.6281L87.4995 38.4375L64.2151 35.0531Z" fill="#0077DC"/>
</svg>
