<svg width="17" height="17" viewBox="0 0 17 17" fill="none" xmlns="http://www.w3.org/2000/svg">
<path d="M14.653 3.19032C13.142 1.67932 11.133 0.847168 8.99609 0.847168C6.85922 0.847168 4.85022 1.67932 3.33922 3.19032C1.82822 4.70132 0.996094 6.71029 0.996094 8.84717C0.996094 10.984 1.82822 12.993 3.33922 14.504C4.85022 16.015 6.85922 16.8472 8.99609 16.8472C11.133 16.8472 13.142 16.015 14.653 14.504C16.164 12.993 16.9961 10.984 16.9961 8.84717C16.9961 6.71029 16.164 4.70129 14.653 3.19032ZM8.99609 15.2769C5.45069 15.2769 2.56634 12.3925 2.56634 8.84717C2.56634 8.84136 2.56653 8.83561 2.56656 8.82986C2.56656 8.82839 2.56634 8.82698 2.56634 8.82551C2.56634 8.82304 2.56666 8.82067 2.56672 8.81823C2.58231 5.31532 5.41316 2.46542 8.90872 2.41854C8.91603 2.4182 8.92328 2.41745 8.93069 2.41745C8.93512 2.41745 8.93944 2.41798 8.94384 2.41811C8.96128 2.41798 8.97866 2.41745 8.99613 2.41745C12.5415 2.41745 15.4259 5.30182 15.4259 8.8472C15.4259 12.3926 12.5415 15.2769 8.99609 15.2769Z" fill="#333333"/>
<path d="M13.8805 9.23398C13.6191 9.23398 13.4071 9.02204 13.4071 8.7606C13.4071 8.49917 13.6191 8.28723 13.8805 8.28723H14.4511C14.1831 5.65985 12.0523 3.57557 9.40448 3.37988V3.8766C9.40448 4.13804 9.19254 4.34998 8.9311 4.34998C8.66966 4.34998 8.45773 4.13804 8.45773 3.8766V3.3912C5.8491 3.64682 3.7712 5.73813 3.5361 8.35263H4.0471C4.30854 8.35263 4.52048 8.56457 4.52048 8.82601C4.52048 9.08745 4.30854 9.29938 4.0471 9.29938H3.53223C3.74988 11.956 5.86945 14.082 8.52316 14.3101V13.71C8.52316 13.4485 8.7351 13.2366 8.99654 13.2366C9.25798 13.2366 9.46991 13.4485 9.46991 13.71V14.3101C12.1454 14.0802 14.2778 11.921 14.4658 9.23398H13.8805ZM10.9128 7.60091L9.33129 9.18245C9.24251 9.27123 9.12213 9.3211 8.99657 9.3211C8.87104 9.3211 8.7506 9.27123 8.66185 9.18245L5.90895 6.42954C5.72407 6.2447 5.72407 5.94498 5.90895 5.7601C6.09379 5.57523 6.39351 5.57523 6.57838 5.7601L8.9966 8.17829L10.2434 6.93148C10.4283 6.7466 10.728 6.7466 10.9129 6.93148C11.0977 7.11632 11.0977 7.41607 10.9128 7.60091Z" fill="#333333"/>
</svg>
