<svg width="41" height="41" viewBox="0 0 41 41" fill="none" xmlns="http://www.w3.org/2000/svg">
<path d="M40.9439 34.9312C40.5809 36.362 39.6548 37.1943 38.2594 37.6427C35.1047 38.6553 31.9708 39.7358 28.8233 40.7714C26.8147 41.4357 24.8248 40.373 24.3389 38.3936C24.1814 37.7543 24.2137 37.1004 24.2346 36.4528C24.245 36.0836 24.1386 35.9553 23.7538 35.9605C22.2322 35.9803 20.7096 35.972 19.188 35.9678C16.708 35.9678 14.5544 34.0113 14.2968 31.5386C14.1612 30.2277 14.2248 28.9126 14.2509 27.6017C14.2718 26.5713 15.0227 25.9101 16.0238 25.9237C16.9624 25.9362 17.6685 26.6537 17.6925 27.6799C17.7154 28.7228 17.6925 29.7657 17.6998 30.8023C17.6998 31.9276 18.3422 32.5596 19.4727 32.5617C20.8632 32.5617 22.2538 32.5617 23.6443 32.5617C24.2231 32.5617 24.2241 32.5617 24.2241 31.9902C24.2241 24.0934 24.2241 16.1969 24.2241 8.3008C24.2241 7.80543 24.2189 7.31109 24.3451 6.82823C24.658 5.62994 25.4183 4.83526 26.5686 4.34927H19.4925C18.3161 4.34927 17.6966 4.975 17.6925 6.16078C17.6925 6.6426 17.706 7.12441 17.6862 7.60519C17.6445 8.5876 16.9405 9.31241 16.0228 9.34266C15.5805 9.36491 15.1472 9.21181 14.817 8.91659C14.4868 8.62138 14.2864 8.20786 14.2593 7.7658C14.1842 6.83553 14.1404 5.88858 14.3542 4.9677C14.8443 2.85375 16.1709 1.54805 18.2734 1.02451C18.3359 1.00887 18.3975 0.98801 18.459 0.969238H38.2115C39.6371 1.32382 40.558 2.19881 40.9439 3.62341V34.9312Z" fill="#FF5C00"/>
<path d="M5.69646 15.936C6.73936 15.936 7.78225 15.9245 8.81889 15.9412C9.14532 15.9412 9.2444 15.8369 9.24231 15.5146C9.2298 14.0546 9.2298 12.5977 9.24231 11.1439C9.24544 10.1103 9.794 9.42725 10.7597 9.27498C11.3583 9.18008 11.8454 9.42516 12.2636 9.8444C13.9545 11.5395 15.6467 13.2321 17.3404 14.9223C17.7916 15.3728 18.2435 15.8247 18.6962 16.278C19.5774 17.1635 19.5753 18.1125 18.6847 19.0052C17.1697 20.5237 15.6523 22.0414 14.1325 23.5585C13.5161 24.1748 12.8977 24.7881 12.2844 25.4075C11.7244 25.9718 11.0622 26.1553 10.3238 25.8643C9.58542 25.5734 9.24857 24.9393 9.24127 24.1602C9.22771 22.7565 9.24127 21.3507 9.24127 19.9459C9.24127 19.3421 9.24127 19.3421 8.65516 19.3421C6.66427 19.3421 4.67442 19.3483 2.68458 19.3421C1.45083 19.3285 0.632155 18.1813 1.03367 17.0456C1.14326 16.723 1.35096 16.4427 1.62771 16.2439C1.90446 16.0451 2.23642 15.9378 2.57716 15.937C3.61588 15.9307 4.65565 15.936 5.69646 15.936Z" fill="#FF5C00"/>
</svg>
