<svg width="6" height="6" viewBox="0 0 6 6" fill="none" xmlns="http://www.w3.org/2000/svg">
<path d="M5.44208 3.0728C5.31137 3.0728 5.2054 2.96683 5.2054 2.83611C5.2054 2.70539 5.31137 2.59942 5.44208 2.59942H5.72738C5.59338 1.28574 4.52798 0.243596 3.20407 0.145752V0.394111C3.20407 0.52483 3.0981 0.630799 2.96738 0.630799C2.83666 0.630799 2.73069 0.52483 2.73069 0.394111V0.151408C1.42638 0.279221 0.387429 1.32488 0.269882 2.63213H0.525382C0.656101 2.63213 0.762069 2.7381 0.762069 2.86881C0.762069 2.99953 0.656101 3.1055 0.525382 3.1055H0.267944C0.376772 4.4338 1.43655 5.49683 2.76341 5.61085V5.3108C2.76341 5.18008 2.86938 5.07411 3.0001 5.07411C3.13082 5.07411 3.23679 5.18008 3.23679 5.3108V5.61085C4.57451 5.49589 5.64074 4.4163 5.73471 3.0728H5.44208ZM3.95823 2.25627L3.16748 3.04703C3.12309 3.09142 3.0629 3.11636 3.00012 3.11636C2.93735 3.11636 2.87713 3.09142 2.83276 3.04703L1.4563 1.67058C1.36387 1.57816 1.36387 1.4283 1.4563 1.33586C1.54873 1.24342 1.69858 1.24342 1.79102 1.33586L3.00013 2.54496L3.62354 1.92155C3.71596 1.82911 3.86582 1.82911 3.95826 1.92155C4.05066 2.01397 4.05066 2.16385 3.95823 2.25627Z" fill="#F2F2F2"/>
</svg>
