<svg width="29" height="36" viewBox="0 0 29 36" fill="none" xmlns="http://www.w3.org/2000/svg">
<path d="M14.3819 35.8223C13.2446 35.613 12.1639 35.2659 11.2525 34.5089C10.1464 33.5867 9.52931 32.4132 9.43347 30.9736C9.40935 30.6111 9.39174 30.2476 9.38066 29.8832C9.38066 29.7717 9.34252 29.626 9.46965 29.5663C9.59679 29.5067 9.68383 29.6309 9.77575 29.6944C10.2774 30.0436 10.7723 30.4025 11.2759 30.7497C11.674 31.0235 12.0241 30.9961 12.2363 30.691C12.4485 30.3859 12.3566 30.0221 11.984 29.7521C11.1723 29.1654 10.3772 28.5483 9.52833 28.0202C8.07802 27.1185 6.99151 25.8863 6.15927 24.4193C4.7647 21.9627 3.06208 19.7251 1.21276 17.6098C0.420612 16.7023 0.804949 15.4906 1.52179 14.9918C2.40705 14.3514 3.50279 14.0717 4.58671 14.2095C6.24924 14.3982 7.57437 15.1923 8.67457 16.4519C8.7978 16.3023 8.74792 16.1439 8.74792 16.003C8.74792 11.9693 8.74792 7.93521 8.74792 3.90081C8.74792 2.76638 9.06771 1.76495 10.0281 1.06473C10.9552 0.390921 11.9752 0.267698 13.0128 0.74103C14.0749 1.23001 14.6959 2.09061 14.7888 3.26025C14.9267 4.97363 14.821 6.69288 14.8474 8.41017C14.8543 8.86884 14.8523 8.86884 15.268 8.70356C15.7079 8.51989 16.185 8.4423 16.6605 8.47707C17.136 8.51183 17.5967 8.65797 18.0053 8.90368C18.4139 9.14939 18.7589 9.48777 19.0126 9.89149C19.2662 10.2952 19.4213 10.7529 19.4654 11.2277C19.4986 11.5651 19.5876 11.5308 19.834 11.4174C21.7039 10.5646 23.783 11.7049 24.0999 13.7469C24.1723 14.2144 24.1723 14.2144 24.5957 14.0325C26.448 13.2383 28.5946 14.5214 28.7843 16.5174C28.8264 16.9595 28.8361 17.3976 28.8371 17.8416C28.8371 20.353 28.8518 22.8644 28.8313 25.3719C28.8215 26.5963 28.6953 27.8099 28.2445 28.9688C28.2055 29.0846 28.1415 29.1904 28.057 29.2786C27.9724 29.3668 27.8695 29.4354 27.7555 29.4793C26.8313 29.8667 25.8842 30.1969 24.9194 30.468C24.3327 30.6372 24.0676 30.9452 24.186 31.3335C24.3043 31.7217 24.6505 31.8313 25.2402 31.6611C25.7399 31.5174 26.2358 31.3599 26.7296 31.1956C26.981 31.1125 27.0973 31.1311 27.0318 31.443C26.5565 33.6923 25.1864 35.0791 22.9811 35.6668C22.7933 35.7167 22.6066 35.7705 22.4198 35.8223H14.3819Z" fill="#FFB800"/>
</svg>
