<svg width="100" height="100" viewBox="0 0 100 100" fill="none" xmlns="http://www.w3.org/2000/svg">
<path d="M16.6668 74.9998V72.2915C16.6668 70.8748 17.3335 69.5415 18.3752 68.9165C25.4168 64.7082 33.4585 62.4998 41.6668 62.4998C41.7918 62.4998 41.8752 62.4998 42.0002 62.5415C42.4168 59.6248 43.2502 56.8332 44.4585 54.2915C43.5418 54.2082 42.6252 54.1665 41.6668 54.1665C31.5835 54.1665 22.1668 56.9582 14.1252 61.7498C10.4585 63.9165 8.3335 67.9998 8.3335 72.2915V83.3332H46.9168C45.1668 80.8332 43.7918 77.9998 42.8752 74.9998H16.6668ZM41.6668 49.9998C50.8752 49.9998 58.3335 42.5415 58.3335 33.3332C58.3335 24.1248 50.8752 16.6665 41.6668 16.6665C32.4585 16.6665 25.0002 24.1248 25.0002 33.3332C25.0002 42.5415 32.4585 49.9998 41.6668 49.9998ZM41.6668 24.9998C46.2502 24.9998 50.0002 28.7498 50.0002 33.3332C50.0002 37.9165 46.2502 41.6665 41.6668 41.6665C37.0835 41.6665 33.3335 37.9165 33.3335 33.3332C33.3335 28.7498 37.0835 24.9998 41.6668 24.9998ZM86.4585 66.6665C86.4585 65.7498 86.3335 64.9165 86.2085 64.0415L90.9585 59.8332L86.7918 52.6248L80.7502 54.6665C79.4168 53.5415 77.9168 52.6665 76.2502 52.0415L75.0002 45.8332H66.6668L65.4168 52.0415C63.7502 52.6665 62.2502 53.5415 60.9168 54.6665L54.8752 52.6248L50.7085 59.8332L55.4585 64.0415C55.3335 64.9165 55.2085 65.7498 55.2085 66.6665C55.2085 67.5832 55.3335 68.4165 55.4585 69.2915L50.7085 73.4998L54.8752 80.7082L60.9168 78.6665C62.2502 79.7915 63.7502 80.6665 65.4168 81.2915L66.6668 87.4998H75.0002L76.2502 81.2915C77.9168 80.6665 79.4168 79.7915 80.7502 78.6665L86.7918 80.7082L90.9585 73.4998L86.2085 69.2915C86.3335 68.4165 86.4585 67.5832 86.4585 66.6665ZM70.8335 74.9998C66.2502 74.9998 62.5002 71.2498 62.5002 66.6665C62.5002 62.0832 66.2502 58.3332 70.8335 58.3332C75.4168 58.3332 79.1668 62.0832 79.1668 66.6665C79.1668 71.2498 75.4168 74.9998 70.8335 74.9998Z" fill="#FF5C00"/>
</svg>
