<svg width="17" height="16" viewBox="0 0 17 16" fill="none" xmlns="http://www.w3.org/2000/svg">
<path d="M6.80712 0C8.38326 0 9.89485 0.62612 11.0093 1.74062C12.1239 2.85512 12.75 4.36671 12.75 5.94286C12.75 7.41486 12.2105 8.768 11.3237 9.81029L11.5705 10.0571H12.2928L16.8643 14.6286L15.4928 16L10.9214 11.4286V10.7063L10.6745 10.4594C9.63226 11.3463 8.27912 11.8857 6.80712 11.8857C5.23097 11.8857 3.71938 11.2596 2.60488 10.1451C1.49038 9.03059 0.864258 7.519 0.864258 5.94286C0.864258 4.36671 1.49038 2.85512 2.60488 1.74062C3.71938 0.62612 5.23097 0 6.80712 0ZM6.80712 1.82857C4.5214 1.82857 2.69283 3.65714 2.69283 5.94286C2.69283 8.22857 4.5214 10.0571 6.80712 10.0571C9.09283 10.0571 10.9214 8.22857 10.9214 5.94286C10.9214 3.65714 9.09283 1.82857 6.80712 1.82857Z" fill="#686B6F"/>
</svg>
