<svg width="43" height="42" viewBox="0 0 43 42" fill="none" xmlns="http://www.w3.org/2000/svg">
<path fill-rule="evenodd" clip-rule="evenodd" d="M21.5002 0.0791016C15.8522 0.0791016 15.1434 0.103102 12.9242 0.203902C10.7098 0.304702 9.1978 0.656702 7.8746 1.1703C6.48694 1.69294 5.22999 2.51197 4.1914 3.5703C3.13287 4.60936 2.31382 5.86688 1.7914 7.2551C1.2778 8.5767 0.927395 10.0887 0.824995 12.3031C0.724195 14.5223 0.700195 15.2311 0.700195 20.8791C0.700195 26.5271 0.724195 27.2359 0.824995 29.4551C0.925795 31.6695 1.2778 33.1815 1.7914 34.5031C2.3242 35.8711 3.0346 37.0311 4.1914 38.1879C5.22999 39.2462 6.48694 40.0653 7.8746 40.5879C9.1978 41.0999 10.7098 41.4519 12.9242 41.5543C15.1434 41.6551 15.8522 41.6791 21.5002 41.6791C27.1482 41.6791 27.857 41.6551 30.0762 41.5543C32.2906 41.4535 33.8026 41.1015 35.1242 40.5879C36.5125 40.0655 37.77 39.2465 38.809 38.1879C39.8675 37.1489 40.6866 35.8913 41.209 34.5031C41.721 33.1815 42.073 31.6695 42.1754 29.4551C42.2762 27.2359 42.3002 26.5271 42.3002 20.8791C42.3002 15.2311 42.2762 14.5223 42.1754 12.3031C42.0746 10.0887 41.7226 8.5767 41.2074 7.2551C40.6854 5.86702 39.8669 4.60952 38.809 3.5703C37.77 2.51174 36.5125 1.69268 35.1242 1.1703C33.8026 0.658302 32.2906 0.306302 30.0762 0.203902C27.857 0.103102 27.1482 0.0791016 21.5002 0.0791016ZM21.5002 3.8263C27.0538 3.8263 27.7114 3.8487 29.905 3.9479C31.9322 4.0407 33.0346 4.3799 33.7674 4.6647C34.7386 5.0423 35.4314 5.4919 36.1594 6.2199C36.8874 6.9479 37.337 7.6407 37.7146 8.6119C37.9994 9.3447 38.3386 10.4455 38.4314 12.4743C38.5306 14.6663 38.553 15.3255 38.553 20.8791C38.553 26.4327 38.5306 27.0903 38.4314 29.2839C38.3386 31.3127 37.9994 32.4135 37.7146 33.1463C37.3814 34.0498 36.85 34.8672 36.1594 35.5383C35.4883 36.2289 34.6709 36.7604 33.7674 37.0935C33.0346 37.3783 31.9322 37.7175 29.905 37.8103C27.713 37.9095 27.0538 37.9319 21.5002 37.9319C15.9466 37.9319 15.2874 37.9095 13.0954 37.8103C11.0666 37.7175 9.9658 37.3783 9.233 37.0935C8.32946 36.7604 7.51209 36.2289 6.841 35.5383C6.15048 34.8671 5.61908 34.0498 5.2858 33.1463C5.001 32.4135 4.6618 31.3127 4.569 29.2839C4.4698 27.0919 4.4474 26.4327 4.4474 20.8791C4.4474 15.3255 4.4698 14.6679 4.569 12.4743C4.6618 10.4455 5.001 9.3447 5.2858 8.6119C5.6634 7.6407 6.113 6.9479 6.841 6.2199C7.51213 5.52931 8.32949 4.99789 9.233 4.6647C9.9658 4.3799 11.0666 4.0407 13.0954 3.9479C15.2874 3.8487 15.9466 3.8263 21.5002 3.8263Z" fill="black"/>
<path fill-rule="evenodd" clip-rule="evenodd" d="M21.4998 9.67881C18.5294 9.67881 15.6806 10.8588 13.5802 12.9592C11.4798 15.0596 10.2998 17.9084 10.2998 20.8788C10.2998 23.8492 11.4798 26.698 13.5802 28.7984C15.6806 30.8988 18.5294 32.0788 21.4998 32.0788C24.4702 32.0788 27.319 30.8988 29.4194 28.7984C31.5198 26.698 32.6998 23.8492 32.6998 20.8788C32.6998 17.9084 31.5198 15.0596 29.4194 12.9592C27.319 10.8588 24.4702 9.67881 21.4998 9.67881ZM21.4998 28.0788C19.5902 28.0788 17.7589 27.3202 16.4086 25.97C15.0584 24.6197 14.2998 22.7884 14.2998 20.8788C14.2998 18.9692 15.0584 17.1379 16.4086 15.7876C17.7589 14.4374 19.5902 13.6788 21.4998 13.6788C23.4094 13.6788 25.2407 14.4374 26.591 15.7876C27.9412 17.1379 28.6998 18.9692 28.6998 20.8788C28.6998 22.7884 27.9412 24.6197 26.591 25.97C25.2407 27.3202 23.4094 28.0788 21.4998 28.0788ZM35.4198 9.83881C35.4198 10.175 35.3536 10.5079 35.2249 10.8185C35.0963 11.1291 34.9077 11.4113 34.67 11.649C34.4323 11.8867 34.1501 12.0753 33.8395 12.2039C33.5289 12.3326 33.196 12.3988 32.8598 12.3988C32.5236 12.3988 32.1907 12.3326 31.8801 12.2039C31.5695 12.0753 31.2873 11.8867 31.0496 11.649C30.8119 11.4113 30.6233 11.1291 30.4947 10.8185C30.366 10.5079 30.2998 10.175 30.2998 9.83881C30.2998 9.15985 30.5695 8.50871 31.0496 8.02862C31.5297 7.54852 32.1808 7.27881 32.8598 7.27881C33.5388 7.27881 34.1899 7.54852 34.67 8.02862C35.1501 8.50871 35.4198 9.15985 35.4198 9.83881Z" fill="black"/>
</svg>
