<svg width="20" height="20" viewBox="0 0 20 20" fill="none" xmlns="http://www.w3.org/2000/svg">
<path d="M18.7633 10.5085C19.157 9.9882 19.375 9.3507 19.375 8.68742C19.375 7.63508 18.7867 6.63898 17.8398 6.08351C17.5961 5.94053 17.3185 5.86528 17.0359 5.86555H11.4156L11.5563 2.98508C11.5891 2.28898 11.343 1.62804 10.8648 1.12414C10.6302 0.875767 10.3471 0.678153 10.0331 0.54351C9.71905 0.408867 9.38074 0.340055 9.03906 0.341326C7.82031 0.341326 6.74219 1.16164 6.41875 2.33586L4.40547 9.62492H1.375C0.960156 9.62492 0.625 9.96008 0.625 10.3749V18.9062C0.625 19.321 0.960156 19.6562 1.375 19.6562H15.468C15.6836 19.6562 15.8945 19.614 16.0891 19.5296C17.2047 19.0538 17.9242 17.964 17.9242 16.7546C17.9242 16.4593 17.882 16.1687 17.7977 15.8874C18.1914 15.3671 18.4094 14.7296 18.4094 14.0663C18.4094 13.771 18.3672 13.4804 18.2828 13.1991C18.6766 12.6788 18.8945 12.0413 18.8945 11.378C18.8898 11.0827 18.8477 10.7898 18.7633 10.5085ZM2.3125 17.9687V11.3124H4.21094V17.9687H2.3125ZM17.2281 9.69523L16.7148 10.1405L17.0406 10.7359C17.148 10.932 17.2036 11.1522 17.2023 11.3757C17.2023 11.7624 17.0336 12.1304 16.743 12.3835L16.2297 12.8288L16.5555 13.4241C16.6628 13.6202 16.7185 13.8404 16.7172 14.064C16.7172 14.4507 16.5484 14.8187 16.2578 15.0718L15.7445 15.5171L16.0703 16.1124C16.1776 16.3085 16.2333 16.5287 16.232 16.7523C16.232 17.2773 15.9227 17.7507 15.4445 17.9663H5.71094V11.2374L8.04297 2.7882C8.1031 2.57164 8.23219 2.38058 8.41066 2.24397C8.58914 2.10737 8.80728 2.03266 9.03203 2.03117C9.21016 2.03117 9.38594 2.08273 9.52656 2.1882C9.75859 2.36164 9.88281 2.62414 9.86875 2.90304L9.64375 7.55305H17.0125C17.4297 7.80851 17.6875 8.23976 17.6875 8.68742C17.6875 9.07414 17.5188 9.43976 17.2281 9.69523Z" fill="#00A86E"/>
</svg>
