<svg width="40" height="41" viewBox="0 0 40 41" fill="none" xmlns="http://www.w3.org/2000/svg">
<path d="M20.0001 0.924561C8.95429 0.924561 0.00012207 9.87873 0.00012207 20.9246C0.00012207 31.9704 8.95429 40.9246 20.0001 40.9246C31.046 40.9246 40.0001 31.9704 40.0001 20.9246C40.0001 9.87873 31.046 0.924561 20.0001 0.924561ZM15.1043 29.2141H11.0543V16.1808H15.1043V29.2141ZM13.0543 14.5808C11.7751 14.5808 10.948 13.6746 10.948 12.5537C10.948 11.41 11.8001 10.5308 13.1064 10.5308C14.4126 10.5308 15.2126 11.41 15.2376 12.5537C15.2376 13.6746 14.4126 14.5808 13.0543 14.5808ZM29.896 29.2141H25.846V21.9912C25.846 20.31 25.2585 19.1683 23.7939 19.1683C22.6751 19.1683 22.0105 19.9412 21.7168 20.685C21.6085 20.9496 21.5814 21.3246 21.5814 21.6975V29.2121H17.5293V20.3371C17.5293 18.71 17.4772 17.3496 17.423 16.1787H20.9418L21.1272 17.9891H21.2085C21.7418 17.1391 23.048 15.885 25.2335 15.885C27.898 15.885 29.896 17.6704 29.896 21.5079V29.2141Z" fill="white"/>
</svg>
