<svg width="40" height="41" viewBox="0 0 40 41" fill="none" xmlns="http://www.w3.org/2000/svg">
<path d="M20.0001 0.494385C8.95429 0.494385 0.00012207 9.44855 0.00012207 20.4944C0.00012207 31.5402 8.95429 40.4944 20.0001 40.4944C31.046 40.4944 40.0001 31.5402 40.0001 20.4944C40.0001 9.44855 31.046 0.494385 20.0001 0.494385ZM15.1043 28.784H11.0543V15.7506H15.1043V28.784ZM13.0543 14.1506C11.7751 14.1506 10.948 13.2444 10.948 12.1236C10.948 10.9798 11.8001 10.1006 13.1064 10.1006C14.4126 10.1006 15.2126 10.9798 15.2376 12.1236C15.2376 13.2444 14.4126 14.1506 13.0543 14.1506ZM29.896 28.784H25.846V21.5611C25.846 19.8798 25.2585 18.7381 23.7939 18.7381C22.6751 18.7381 22.0105 19.5111 21.7168 20.2548C21.6085 20.5194 21.5814 20.8944 21.5814 21.2673V28.7819H17.5293V19.9069C17.5293 18.2798 17.4772 16.9194 17.423 15.7486H20.9418L21.1272 17.559H21.2085C21.7418 16.709 23.048 15.4548 25.2335 15.4548C27.898 15.4548 29.896 17.2402 29.896 21.0777V28.784Z" fill="white"/>
</svg>
