<svg width="700" height="604" viewBox="0 0 700 604" fill="none" xmlns="http://www.w3.org/2000/svg">
<path d="M179.131 0.22963C185.131 1.62866 190.39 4.71271 195.481 8.1755C197.85 9.79095 200.263 11.3137 202.669 12.8132C204.137 13.7156 205.659 14.5185 207.224 15.217C208.519 15.883 209.926 16.2699 211.365 16.3548C212.803 16.4398 214.243 16.2211 215.6 15.7117C217.208 15.1227 218.878 14.7437 220.573 14.5832C223.334 14.2874 226.117 14.8432 228.583 16.1832C232.868 18.5315 236.648 21.7834 239.688 25.7368C242.594 29.5425 245.26 33.5446 247.669 37.7174C250.889 43.0508 254.307 48.214 258.833 52.4034C259.493 53.014 260.175 53.6092 260.872 54.1734C261.189 54.4555 261.589 54.6141 262.004 54.6225C262.42 54.631 262.825 54.4888 263.153 54.2198C264.077 53.5628 265.016 52.9212 265.918 52.2333C270.743 48.5595 276.409 46.3052 282.334 45.702C286.896 45.1918 291.26 43.7309 295.595 42.1619C300.304 40.4537 304.969 38.5599 309.928 37.7793C315.642 36.8827 321.37 36.5889 326.967 38.5522C331.368 40.0981 335.035 42.7493 337.434 47.1087C337.698 47.5879 338.006 48.0362 338.299 48.5C339.311 50.0459 340.58 50.8188 342.488 50.4015C344.013 50.128 345.579 50.5002 346.845 51.4372C348.704 52.6205 350.476 53.9485 352.148 55.4101C355.863 58.7761 360.474 60.8495 365.351 61.3463C370.18 62.0111 374.908 63.3282 379.419 65.2652C385.501 67.7861 392.046 68.8246 398.563 68.3028C403.807 67.9448 408.869 66.1315 413.233 63.0468C415.392 61.4205 417.181 59.3083 418.47 56.8633C419.781 54.593 421.209 52.3998 422.746 50.2932C425.428 46.4774 429.341 43.8271 433.749 42.8421C439.746 41.3629 445.591 39.2659 451.199 36.5812C454.982 34.7455 458.958 33.3885 463.045 32.5387C466.749 31.8888 470.519 31.7744 474.252 32.1986C477.343 32.5181 480.433 32.817 483.524 33.0952C487.14 33.4276 490.756 33.7754 494.38 34.0614C497.185 34.2778 500.002 34.2778 502.807 34.0614C506.475 33.7754 510.142 33.2421 513.81 33.0875C516.497 32.9215 519.191 32.9215 521.878 33.0875C526.8 33.4692 531.606 34.8443 536.035 37.1377C539.299 38.8227 542.475 40.701 545.695 42.471C548.622 44.1791 551.77 45.4289 555.039 46.1812C559.822 47.1628 564.238 46.0266 568.433 43.6768C571.552 41.8195 574.44 39.5606 577.03 36.9522C580.03 34.0923 582.971 31.1706 586.074 28.4498C589.951 24.9957 594.747 22.8898 599.805 22.4209C601.966 22.1998 604.089 21.6666 606.113 20.8363C607.624 20.2771 608.879 19.1369 609.626 17.6441C609.868 17.1494 610.184 16.6933 610.36 16.1832C612.127 12.0557 615.45 10.4248 619.433 9.8296C623.937 9.14941 628.169 10.3243 632.291 12.0479C638.159 14.5059 643.404 18.1542 648.369 22.2276C654.655 27.3832 660.333 33.1648 664.506 40.3841C668.022 46.4075 670.21 53.1851 670.91 60.2178C671.342 64.4149 671.115 68.612 671.174 72.8091C671.122 74.9696 671.24 77.1308 671.526 79.2709C671.784 81.0533 672.454 82.7414 673.477 84.1864C674.501 85.6313 675.846 86.7889 677.394 87.5569C680.078 88.9791 682.961 89.8757 685.748 90.9733C687.787 91.7577 689.77 92.6954 691.682 93.7791C695.907 96.2757 699.017 99.6998 700 104.894V111.943C699.149 115.939 696.905 119.248 695.152 122.803C694.097 124.802 693.326 126.953 692.863 129.188C692.727 129.85 692.722 130.536 692.848 131.2C692.974 131.865 693.229 132.496 693.597 133.052C693.927 133.563 694.279 134.057 694.623 134.56C697.337 138.587 697.227 142.753 695.1 146.965C693.931 149.12 692.344 150.99 690.443 152.453C685.902 156.21 680.709 158.637 675.311 160.592C674.981 160.716 674.628 160.793 674.306 160.932C671.506 162.104 668.43 162.328 665.504 161.574C664.761 161.379 663.99 161.329 663.23 161.427C662.005 161.636 661.029 162.2 660.751 163.646C660.65 164.321 660.426 164.969 660.091 165.555C658.866 167.503 658.396 169.721 657.853 171.939C656.812 176.175 654.861 177.953 650.702 178.355C650.001 178.391 649.319 178.61 648.717 178.992C648.116 179.373 647.613 179.906 647.254 180.542C646.521 181.787 645.663 182.992 644.988 184.291C642.01 190.044 639.46 196.032 637.36 202.2C635.885 206.83 634.963 211.637 634.616 216.507C634.154 221.508 633.391 226.432 631.33 231.031C629.857 234.058 628.139 236.947 626.196 239.665C625.023 241.215 624.162 243.001 623.665 244.913C623.065 247.83 623.261 250.866 624.23 253.67C624.913 255.511 625.457 257.405 625.858 259.336C626.266 261.795 625.807 264.327 624.567 266.455C623.315 268.701 621.55 270.582 619.433 271.927C617.551 273.168 615.591 274.271 613.565 275.228C610.902 276.526 608.203 277.74 605.827 279.603C603.208 281.659 601.763 284.24 601.858 287.811C602.031 290.528 601.957 293.256 601.638 295.958C601.468 297.055 601.223 298.137 600.905 299.197C599.379 304.128 597.832 309.06 596.328 313.999C593.929 322.17 588.936 329.222 582.186 333.972C580.198 335.402 578.196 336.801 576.193 338.207C571.617 341.415 568.411 345.651 567.149 351.386C566.687 353.496 566.306 355.614 566.005 357.755C565.741 359.649 565.484 361.55 565.154 363.428C564.432 367.637 562.938 371.657 560.753 375.262C559.815 376.808 558.978 378.462 558.01 380.008C556.364 382.636 555.393 385.67 555.194 388.812C554.856 393.875 552.751 398.025 549.531 401.658C548.453 402.88 547.411 404.132 546.377 405.399C545.409 406.569 544.722 407.967 544.376 409.475C544.03 410.984 544.035 412.558 544.389 414.064C544.859 416.483 545.379 418.895 545.724 421.345C546.348 425.821 544.529 428.997 541.103 431.347C539.893 432.108 538.618 432.749 537.296 433.264C535.868 433.828 534.513 434.579 533.262 435.498C531.068 437.196 529.452 439.595 528.656 442.338C527.878 444.99 527.152 447.664 526.154 450.246C524.453 454.682 522.406 458.895 519.326 462.481C515.484 466.908 510.295 469.782 504.656 470.605C501.021 471.242 497.324 471.392 493.653 471.053C493.245 471.06 492.847 470.916 492.528 470.647C492.209 470.377 491.99 469.999 491.908 469.577C491.509 468.285 491.286 466.939 491.248 465.581C491.273 463.418 491.185 461.256 490.983 459.104C490.683 456.321 489.685 454.002 487.36 452.456C483.876 450.137 481.411 446.705 478.697 443.552C477.088 441.587 475.315 439.776 473.402 438.141C469.397 434.895 465.487 435.822 462.208 438.806C461.308 439.696 460.517 440.7 459.854 441.797C457.287 445.662 453.619 446.783 449.372 446.435C447.251 446.246 445.22 445.444 443.504 444.116C442.771 443.536 441.949 443.011 441.194 442.416C440.455 441.85 439.594 441.487 438.688 441.36C437.783 441.233 436.862 441.346 436.008 441.689C434.45 442.255 433.006 443.12 431.746 444.24C429.055 446.427 426.443 448.746 423.194 450.029C422.87 450.179 422.584 450.408 422.359 450.697C422.135 450.986 421.978 451.326 421.903 451.691C421.36 453.386 420.832 455.087 420.319 456.792C419.838 458.511 419.275 460.204 418.632 461.863C417.875 463.778 416.748 465.506 415.324 466.938C413.9 468.369 412.209 469.474 410.358 470.18C408.175 471.089 405.944 471.864 403.676 472.499C399.011 473.797 395.717 476.827 393.407 481.156C392.453 482.933 391.522 484.727 390.7 486.566C388.33 491.911 384.76 496.567 380.299 500.131C378.356 501.727 376.509 503.449 374.769 505.287C371.219 509.005 369.964 513.511 370.463 518.659C370.764 521.751 371.035 524.804 371.336 527.872C371.428 530.097 371.318 532.325 371.006 534.527C370.566 539.691 369.964 544.839 369.091 549.986C367.683 558.18 363.884 565.012 358.573 571.003C355.257 574.869 351.243 577.999 346.764 580.208C344.43 581.381 341.916 582.104 339.341 582.342C337.727 582.465 337.654 582.396 337.456 580.726C337.137 577.89 336.127 575.19 334.522 572.889C334.28 572.541 334.008 572.209 333.737 571.884C333.678 571.787 333.588 571.715 333.482 571.682C333.377 571.65 333.264 571.658 333.165 571.706C333.837 573.664 334.328 575.686 334.632 577.743C334.901 579.582 334.753 581.463 334.199 583.231C333.817 584.602 333.127 585.857 332.187 586.887C331.248 587.918 330.086 588.695 328.801 589.151C325.595 590.365 322.36 590.249 319.089 589.576C316.894 589.166 314.732 588.582 312.62 587.83C310.948 587.229 309.14 587.194 307.449 587.729C305.125 588.391 302.869 589.295 300.715 590.427C299.108 591.353 297.286 591.785 295.458 591.673C293.629 591.561 291.867 590.91 290.373 589.793C290.123 589.623 289.874 589.468 289.639 589.314C289.214 589.051 288.803 589.082 288.576 589.538C288.07 590.527 287.175 590.574 286.302 590.674C284.193 590.772 282.081 590.653 279.994 590.319C278.654 590.163 277.307 590.103 275.96 590.141C273.987 590.218 273.224 590.914 272.776 592.9C272.656 593.502 272.573 594.111 272.527 594.724C272.388 596.185 272.255 596.386 270.898 596.695C269.582 597.031 268.211 597.047 266.888 596.742C265.565 596.436 264.325 595.818 263.263 594.933C262.163 594.052 262.097 594.098 261.568 595.435C260.63 597.801 260.63 597.801 258.789 596.162L257.659 595.165C256.969 595.675 256.984 596.494 256.83 597.151C256.752 597.61 256.528 598.027 256.194 598.334C255.861 598.64 255.438 598.817 254.996 598.836C254.418 598.933 253.829 598.933 253.251 598.836C252.319 598.712 251.396 598.529 250.485 598.288C247.163 597.229 244.28 598.442 241.471 600.119C240.451 600.73 239.424 601.333 238.368 601.859C237.628 602.247 236.804 602.426 235.979 602.377C235.153 602.328 234.353 602.054 233.659 601.58C232.89 601.123 232.155 600.606 231.459 600.035C230.841 599.511 230.108 599.159 229.328 599.01C228.547 598.862 227.744 598.921 226.992 599.184C225.356 599.68 223.766 600.326 222.238 601.117C220.582 601.905 218.844 602.486 217.06 602.848C214.964 603.286 212.789 602.848 210.994 601.627C210.305 601.163 209.622 600.668 208.97 600.143C208.202 599.514 207.318 599.062 206.374 598.814C205.43 598.567 204.448 598.529 203.49 598.705C192.07 600.444 182.953 595.922 175.412 587.211C169.882 580.827 166.075 573.298 162.906 565.422C160.335 558.982 158.252 552.337 156.679 545.55C155.813 542.325 155.732 538.922 156.444 535.656C157.251 532.386 158.828 529.774 161.711 528.143C162.378 527.764 163.001 527.285 163.632 526.837C163.918 526.628 164.263 526.365 164.109 525.948C163.955 525.53 163.427 525.538 163.038 525.662C162.361 525.86 161.701 526.119 161.065 526.435C159.897 527.014 158.761 527.662 157.662 528.375C157.065 528.767 156.399 529.027 155.704 529.138C155.009 529.25 154.3 529.211 153.62 529.024C149.953 528.25 146.711 526.016 144.569 522.786C142.853 520.269 141.558 517.462 140.74 514.485C139.816 511.3 138.98 508.077 138.187 504.846C136.865 499.36 134.017 494.415 130.009 490.647C123.884 484.687 117.274 479.305 110.256 474.562C103.596 470.126 96.2022 467.513 88.6178 465.457C83.7438 464.076 78.7077 463.436 73.6619 463.556C70.8453 463.638 68.0287 463.638 65.212 463.556C61.2127 463.531 57.2456 462.8 53.4761 461.391C51.5324 460.619 51.5104 460.619 52.794 458.787L54.261 456.607C50.4248 457.086 46.706 456.607 43.706 459.359C43.0847 459.917 42.4305 460.433 41.7476 460.904C40.8884 461.456 40.2693 462.342 40.0238 463.37C39.8195 464.182 39.41 464.919 38.839 465.505C38.2681 466.09 37.557 466.501 36.7818 466.694C34.7155 467.471 32.4453 467.385 30.4371 466.454C29.3503 465.985 28.3169 465.389 27.3564 464.676C24.4591 462.404 21.2244 462.481 17.931 463.131C15.2097 463.672 12.6572 464.808 10.0313 465.689C7.02831 466.787 3.83299 467.174 0.671875 466.825L0.671875 463.115C0.808895 462.842 0.917121 462.555 0.994612 462.257C1.61075 458.392 3.73055 455.355 6.23176 452.588C7.64007 451.042 8.73298 449.303 8.89435 447.084C8.96 445.292 8.68055 443.504 8.07283 441.828C7.56672 440.182 6.9946 438.559 6.53983 436.943C5.37357 433.009 5.57162 429.276 8.00682 425.851C8.64483 424.887 9.23486 423.889 9.77454 422.86C10.1315 422.288 10.364 421.641 10.4553 420.963C10.5466 420.286 10.4945 419.595 10.3027 418.941C8.87968 414.304 9.46647 409.666 10.134 405.028C10.4022 402.611 11.3968 400.346 12.9726 398.567C13.1242 398.444 13.2496 398.29 13.3406 398.113C13.4316 397.936 13.4861 397.741 13.5007 397.54C13.5152 397.339 13.4894 397.138 13.425 396.948C13.3605 396.759 13.2588 396.586 13.1266 396.441C12.6718 395.807 12.2171 395.158 11.733 394.54C11.1315 393.767 10.5007 393.048 9.88456 392.298C7.54424 389.615 6.06588 386.224 5.65964 382.605C5.03733 376.962 4.82156 371.278 5.01416 365.6C5.26355 359.216 6.7232 353.156 8.51293 347.135C9.85433 342.714 10.5179 338.095 10.4787 333.454C10.4127 328.507 10.3907 323.56 10.4787 318.621C10.567 314.672 11.2351 310.761 12.4591 307.027C13.8464 302.646 16.5997 298.89 20.2708 296.368C23.1021 294.379 26.0912 292.651 29.2048 291.205C30.0631 290.817 30.8312 290.238 31.4557 289.506C32.0801 288.775 32.546 287.909 32.8209 286.969C34.0903 282.99 35.0711 278.915 35.7549 274.779C36.2254 271.918 36.9372 269.106 37.882 266.378C39.5691 261.809 42.3637 258.439 46.948 257.009C47.3194 256.931 47.651 256.713 47.8806 256.396C48.1101 256.079 48.2219 255.684 48.195 255.286C48.3783 251.707 50.2854 249.504 53.3881 248.329C54.547 247.889 55.728 247.51 56.9016 247.139C60.9504 245.871 65.2487 241.86 65.0507 235.545C64.904 231.162 64.3905 226.795 64.5739 222.405C64.5779 221.17 64.6884 219.939 64.904 218.726C65.8722 214.327 68.7035 211.769 72.9724 211.568C75.657 211.421 75.6423 211.421 75.9064 208.523C76.0677 206.614 76.5005 204.751 76.8232 202.865C77.278 200.198 77.8575 197.555 77.5567 194.787C77.0168 190.465 75.2059 186.43 72.3783 183.247C70.5739 181.137 68.7108 179.104 66.8477 177.017C64.3509 174.317 62.3204 171.178 60.8477 167.742C58.6473 162.27 58.6473 156.712 60.2243 151.062C61.5812 146.2 63.9504 141.879 66.349 137.551C67.0825 136.276 67.6766 134.938 68.3587 133.64C69.9111 130.561 70.4109 127.013 69.7744 123.592C69.0996 119.078 68.2634 114.587 67.6839 110.065C66.8697 103.796 66.7084 97.5124 68.0653 91.2747C69.1561 86.3139 71.3993 81.7163 74.5934 77.8951C77.4176 74.5956 80.4463 71.497 83.6594 68.6198C87.1379 65.5025 90.4165 62.1457 93.4736 58.5715C96.5542 54.8072 98.3 50.6024 98.1899 45.5783C98.1313 42.7338 98.1435 39.8997 98.2266 37.0759C98.2296 34.4193 98.4356 31.7672 98.8428 29.1455C99.1617 26.8093 99.993 24.5836 101.271 22.645C102.333 21.0597 103.891 19.9188 105.672 19.4218C107.189 18.9348 108.765 18.6746 110.351 18.6489C113.777 18.703 116.146 17.103 117.686 13.9107C118.408 12.3202 119.328 10.8385 120.422 9.50496C124.222 5.09918 128.975 3.476 134.527 4.09435C137.997 4.49628 141.261 5.69435 144.583 6.69144C146.27 7.20159 147.98 7.62671 149.718 7.99772C152.688 8.56226 155.751 8.18845 158.52 6.92333C159.931 6.33478 161.303 5.64792 162.627 4.8673C166.026 2.78979 169.685 1.22848 173.498 0.22963L179.131 0.22963ZM259.911 577.07C260.551 577.559 260.991 578.286 261.143 579.103C262.155 581.87 263.109 584.661 264.077 587.436C264.489 588.731 265.209 589.894 266.167 590.813C267.356 591.872 267.752 591.81 268.287 590.334C269.615 586.693 272.211 585.086 275.784 585.032C277.599 584.978 279.416 585.071 281.219 585.31C284.842 585.859 284.886 585.766 287.087 582.512C287.123 582.465 287.153 582.411 287.189 582.357C287.835 581.461 287.996 581.407 288.884 582.118C289.999 583.014 291.084 583.973 292.177 584.892C294.26 586.624 296.409 587.018 298.874 585.665C301.308 584.354 303.881 583.35 306.539 582.674C308.972 581.92 311.569 581.99 313.962 582.875C314.894 583.238 315.844 583.547 316.808 583.803C319.661 584.491 322.507 585.233 325.485 584.746C328.463 584.259 329.739 582.775 329.776 579.521C329.727 577.039 329.148 574.6 328.082 572.386C327.466 570.987 326.761 569.627 326.079 568.266C325.793 567.694 325.749 567.254 326.358 566.86C329.622 564.734 332.959 564.765 335.739 566.937C338.197 568.838 339.693 571.466 340.874 574.326C341.923 576.854 341.901 576.869 344.263 575.787C344.637 575.609 344.996 575.432 345.378 575.231C350.29 572.528 354.555 568.682 357.847 563.984C360.924 559.903 363.065 555.129 364.104 550.033C365.151 544.155 365.885 538.219 366.304 532.255C366.491 530.037 366.462 527.804 366.216 525.592C365.841 522.404 365.63 519.197 365.585 515.985C365.546 513.475 365.98 510.983 366.861 508.652C367.742 506.321 369.054 504.197 370.72 502.404C372.774 500.11 374.998 497.993 377.373 496.073C381.165 493.028 384.188 489.047 386.174 484.479C387.203 482.119 388.384 479.836 389.71 477.646C390.917 475.594 392.382 473.725 394.067 472.089C396.487 469.77 399.436 468.595 402.465 467.59C404.593 466.887 406.727 466.23 408.803 465.357C410.038 464.852 411.158 464.078 412.089 463.086C413.021 462.093 413.743 460.905 414.209 459.598C414.741 458.226 415.203 456.825 415.595 455.401C416.265 452.773 417.136 450.206 418.199 447.726C418.395 447.178 418.719 446.69 419.141 446.308C419.562 445.926 420.068 445.661 420.612 445.538C422.037 445.151 423.372 444.462 424.536 443.513C425.871 442.501 427.177 441.449 428.49 440.421C429.898 439.205 431.451 438.189 433.111 437.399C436.991 435.753 440.754 435.645 444.267 438.443C444.641 438.744 445.052 438.999 445.404 439.324C447.348 441.148 449.658 441.496 452.145 441.249C452.79 441.202 453.418 441.012 453.989 440.691C454.559 440.37 455.058 439.925 455.453 439.386C456.04 438.613 456.568 437.793 457.162 437.028C461.636 431.239 469.631 428.232 476.893 434.593C478.891 436.411 480.775 438.363 482.534 440.437C484.837 443.057 486.81 446.056 489.729 448.012C494.13 450.941 495.883 455.27 495.986 460.541C495.986 461.84 495.986 463.138 495.986 464.406C496.03 465.836 496.184 465.998 497.526 466.029C499.637 466.096 501.749 465.954 503.834 465.604C509.343 464.622 513.876 461.963 517.169 457.102C518.429 455.24 519.519 453.258 520.426 451.181C521.82 447.842 522.989 444.405 523.925 440.893C524.467 438.93 525.334 437.082 526.485 435.436C528.415 432.679 531.022 430.528 534.025 429.214C535.492 428.564 536.959 427.923 538.345 427.142C539.268 426.708 540.022 425.953 540.478 425.003C540.935 424.053 541.068 422.966 540.854 421.925C540.626 420.526 540.355 419.135 540.12 417.736C539.834 416.097 539.497 414.466 539.269 412.82C538.712 408.715 540.318 405.322 542.607 402.223C543.832 400.568 545.174 398.999 546.546 397.477C548.881 394.825 550.253 391.39 550.419 387.776C550.612 384.553 551.549 381.427 553.147 378.671C554.174 376.94 555.091 375.139 556.147 373.43C558.543 369.598 560.09 365.248 560.673 360.7C561.059 357.825 561.516 354.962 562.044 352.113C562.947 347.173 564.67 342.621 567.978 338.88C570.224 336.432 572.764 334.304 575.533 332.549C577.47 331.266 579.333 329.867 581.159 328.414C585.588 324.892 588.978 320.119 590.937 314.648C592.484 310.428 593.416 306.006 595.008 301.817C596.554 297.86 597.207 293.579 596.915 289.311C596.871 288.631 596.915 287.95 596.915 287.27C596.917 285.126 597.384 283.011 598.282 281.087C599.18 279.163 600.483 277.482 602.093 276.171C603.552 274.923 605.139 273.852 606.824 272.979C608.768 271.958 610.741 271.008 612.692 270.01C615.025 268.82 617.335 267.607 619.154 265.605C620.973 263.603 621.648 261.454 620.812 258.81C620.365 257.411 619.888 256.012 619.455 254.606C618.365 250.928 618.235 247.008 619.081 243.259C619.675 240.422 621.281 238.103 622.866 235.777C624.075 234.035 625.199 232.229 626.232 230.366C628.814 225.543 629.416 220.21 629.9 214.845C630.179 211.085 630.816 207.364 631.8 203.738C633.93 196.535 636.728 189.571 640.154 182.946C641.261 180.767 642.517 178.674 643.91 176.685C644.577 175.703 645.447 174.895 646.455 174.32C647.463 173.746 648.581 173.42 649.726 173.369C652.242 173.16 652.66 172.735 653.284 170.123C653.372 169.76 653.445 169.396 653.518 169.041C653.809 167.268 654.43 165.574 655.345 164.055C655.781 163.385 656.035 162.602 656.078 161.79C656.203 159.874 657.252 158.645 658.792 157.756C661.074 156.431 663.723 155.988 666.281 156.504C667.884 156.927 669.557 156.961 671.174 156.604C677.042 154.795 682.69 152.368 687.582 148.349C688.86 147.35 689.943 146.101 690.773 144.67C692.152 142.15 692.35 139.661 690.509 137.257C690.252 136.917 690.032 136.546 689.775 136.206C688.466 134.431 687.822 132.211 687.963 129.968C688.052 128.238 688.386 126.532 688.954 124.906C689.758 122.652 690.74 120.472 691.888 118.39C692.924 116.521 693.867 114.597 694.711 112.623C696.267 108.836 695.738 105.265 693.545 101.926C692.279 100.209 690.645 98.8312 688.778 97.9066C686.577 96.7395 684.297 95.7473 681.956 94.9385C679.389 94.0637 676.892 92.9756 674.489 91.6844C672.506 90.5707 670.791 88.9947 669.474 87.0765C668.158 85.1583 667.274 82.9486 666.89 80.6158C666.462 78.2464 666.248 75.8395 666.252 73.4275C666.252 70.3357 666.289 67.2439 666.252 64.1521C666.183 55.8706 663.731 47.8061 659.218 41.0256C656.155 36.3974 652.502 32.2359 648.362 28.6585C642.949 23.874 637.228 19.5842 630.655 16.6933C627.443 15.1419 623.912 14.4668 620.387 14.7301C617.849 14.9851 615.721 15.9281 614.643 18.5948C614.482 18.989 614.269 19.3677 614.078 19.7465C612.832 22.2968 610.745 24.2808 608.211 25.3271C605.706 26.3862 603.07 27.0629 600.384 27.3368C596.263 27.7109 592.357 29.4354 589.213 32.2682C586.944 34.3294 584.712 36.4266 582.516 38.5599C579.157 41.8295 575.768 45.0681 571.771 47.5029C564.017 52.2179 556.052 52.7744 547.815 49.0488C544.471 47.539 541.229 45.7906 538.11 43.816C529.807 38.5445 520.844 37.13 511.353 38.3281C508.419 38.6991 505.411 38.9928 502.426 39.1551C496.565 39.3886 490.696 39.1301 484.873 38.3822C480.326 37.8643 475.778 37.4392 471.223 37.0682C469.757 36.9712 468.285 36.9944 466.822 37.1377C462.507 37.6106 458.294 38.8274 454.353 40.7396C448.001 43.6536 441.575 46.3126 434.761 47.8275C431.577 48.5729 428.749 50.4915 426.788 53.2382C424.947 55.6575 423.436 58.3087 421.837 60.898C419.97 63.918 417.458 66.4354 414.502 68.2487C406.918 72.9637 398.695 74.1927 390.084 73.2188C385.249 72.5877 380.514 71.2883 376.001 69.354C372.159 67.8165 368.154 66.7783 364.074 66.2623C359.035 65.5821 354.392 63.8584 350.409 60.4034C349.14 59.3058 347.754 58.3705 346.478 57.3116C345.755 56.6358 344.905 56.1283 343.984 55.8219C343.063 55.5156 342.09 55.4174 341.131 55.5338C340.128 55.6252 339.12 55.4624 338.19 55.0589C337.259 54.6555 336.434 54.0232 335.783 53.215C334.866 52.2551 334.069 51.1744 333.414 49.9995C331.309 46.042 327.95 43.9783 323.945 42.9193C319.544 41.7522 315.092 41.9918 310.676 42.757C306.026 43.53 301.617 45.3 297.194 46.9309C292.413 48.8259 287.438 50.123 282.37 50.7957C277.27 51.4111 272.421 53.4615 268.331 56.7319C267.532 57.3502 266.718 57.9608 265.874 58.5251C262.94 60.4884 260.74 60.4188 257.916 58.2468C256.046 56.7502 254.299 55.0902 252.693 53.2845C248.886 49.2111 245.945 44.442 243.033 39.6498C240.849 35.9124 238.443 32.324 235.83 28.9059C233.345 25.6806 230.282 23.0017 226.815 21.0218C224.719 19.7249 222.226 19.3343 219.862 19.932C218.102 20.4112 216.334 20.8441 214.559 21.2537C212.666 21.7152 210.696 21.6887 208.816 21.1764C205.645 20.2508 202.615 18.8559 199.816 17.0334C196.339 14.846 192.95 12.5117 189.488 10.3166C186.509 8.33099 183.282 6.79101 179.901 5.74072C177.113 4.91759 174.147 5.06396 171.444 6.15811C169.743 6.82789 168.088 7.62343 166.493 8.53878C164.543 9.67871 162.533 10.6981 160.471 11.5919C156.326 13.4124 151.741 13.8073 147.371 12.7204C145.31 12.218 143.285 11.5996 141.268 10.9658C138.4 10.0615 135.547 9.12622 132.51 9.0953C128.197 9.04893 124.933 10.904 122.769 14.8692C122.102 16.0982 121.434 17.3426 120.657 18.502C118.823 21.2305 116.491 23.1397 113.183 23.4798C111.664 23.6189 110.161 23.9358 108.642 24.0131C106.244 24.1368 104.975 25.559 104.197 27.8083C103.537 29.926 103.202 32.1415 103.207 34.3706C103.148 37.8875 103.207 41.4121 103.163 44.9367C103.117 46.7931 102.938 48.6431 102.628 50.471C102.041 54.5908 100.038 57.9686 97.6178 61.1376C94.3684 65.3966 90.4589 68.9598 86.6154 72.585C83.2047 75.8004 79.7572 78.9772 76.9846 82.8574C75.0668 85.5254 73.6888 88.5797 72.9357 91.8313C71.6815 97.1955 71.7621 102.598 72.3563 108.063C72.8697 112.701 73.8233 117.338 74.5568 121.976C75.3929 127.224 74.8428 132.194 72.3563 136.855C71.2487 138.896 70.1558 140.936 69.0409 142.969C67.2063 146.14 65.7782 149.552 64.7939 153.118C63.327 159.077 64.0605 164.635 67.5005 169.698C68.014 170.471 68.5641 171.182 69.1069 171.908C71.3074 174.815 73.9626 177.265 76.2585 180.078C80.6154 185.419 82.9846 191.472 82.4712 198.629C82.3007 200.598 82.0042 202.553 81.5836 204.48C80.8501 208.005 80.344 211.522 80.9528 215.139C81.2242 216.778 80.8355 217.11 79.2291 216.963C78.943 216.963 78.657 216.863 78.3636 216.816C76.6757 216.583 74.9686 216.547 73.2731 216.708C71.1533 216.87 70.2291 217.798 69.7817 219.955C69.5699 220.97 69.4617 222.007 69.459 223.046C69.459 226.2 69.7597 229.338 69.9944 232.476C70.2345 235.001 70.0934 237.55 69.5763 240.028C68.278 245.709 64.7279 249.342 59.7402 251.537C58.2732 252.179 56.7182 252.55 55.2439 253.145C53.3221 253.918 52.9187 254.768 53.4174 256.894C53.6375 257.852 53.9969 258.772 54.239 259.723C54.525 260.836 54.415 261.006 53.3368 261.199C52.5867 261.333 51.83 261.42 51.0703 261.462C46.926 261.678 44.1681 263.873 42.6644 267.908C41.5599 271.169 40.7542 274.534 40.2586 277.956C39.5607 281.778 38.5797 285.535 37.3246 289.195C36.9151 290.586 36.2262 291.868 35.3049 292.954C34.3835 294.039 33.2511 294.903 31.9847 295.487C30.5178 296.159 29.1461 296.963 27.7305 297.72C26.1187 298.605 24.5563 299.585 23.0508 300.658C20.1241 302.676 17.978 305.73 16.9995 309.268C15.2317 315.274 15.1217 321.434 15.4151 327.626C15.6551 331.945 15.52 336.279 15.0117 340.572C14.5219 344.121 13.7139 347.612 12.5985 351C10.7529 356.876 9.85295 363.036 9.93591 369.226C9.98725 372.874 10.0019 376.514 10.332 380.147C10.6621 383.78 11.6303 386.911 14.0802 389.508C14.8136 390.281 15.4811 391.177 16.1559 392.035C17.8599 394.104 18.9266 396.671 19.2146 399.394C19.2953 400.252 19.2146 400.839 18.3344 401.102C16.2366 401.743 15.4004 403.498 15.0484 405.523C14.4176 409.55 14.0581 413.6 15.0484 417.65C15.4219 419.055 15.5005 420.529 15.2788 421.97C15.0572 423.41 14.5405 424.782 13.7647 425.991C13.0313 427.189 12.2978 428.394 11.5643 429.593C11.1764 430.212 10.9149 430.91 10.7962 431.642C10.6775 432.374 10.7043 433.123 10.8748 433.844C11.2438 435.53 11.7142 437.19 12.2831 438.814C12.8093 440.255 13.2238 441.739 13.5227 443.25C14.0036 445.335 13.993 447.511 13.4918 449.59C12.9906 451.669 12.014 453.587 10.6474 455.177C9.83322 456.151 9.03371 457.133 8.21953 458.106C7.45488 459.005 6.86879 460.057 6.49582 461.198C7.53738 461.43 8.32956 460.959 9.1364 460.696C11.8283 459.822 14.4396 458.725 17.2048 458.106C21.7672 457.094 26.0654 457.465 29.9676 460.425C30.6077 460.86 31.2715 461.255 31.9554 461.608C32.534 461.92 33.1759 462.079 33.8258 462.072C34.2319 462.147 34.65 462.057 34.9958 461.821C35.3416 461.584 35.5893 461.218 35.6889 460.796C36.1724 459.239 37.1587 457.91 38.4762 457.04C39.3344 456.398 40.2146 455.772 41.0507 455.1C43.6862 452.988 46.9085 451.85 50.2194 451.861C52.3949 451.851 54.5485 451.402 56.5641 450.539C58.0751 449.875 59.6375 449.333 61.1998 448.808C62.3099 448.399 63.4787 448.195 64.6546 448.205C66.0509 448.185 67.3997 448.739 68.4155 449.749C69.4313 450.759 70.0344 452.146 70.0971 453.616C70.1375 454.416 70.1375 455.219 70.0971 456.019C70.0604 458.532 70.0531 458.501 72.4956 458.539C75.3636 458.593 78.2389 458.385 81.1069 458.779C85.695 459.439 90.2237 460.497 94.6472 461.94C102.158 464.321 109.317 467.513 115.772 472.282C121.536 476.434 127.034 480.981 132.231 485.894C135.716 489.241 138.943 492.812 140.857 497.488C141.993 500.404 142.917 503.406 143.623 506.47C144.353 509.786 145.334 513.035 146.557 516.186C147.418 518.429 148.767 520.428 150.495 522.021C153.019 524.209 154.515 524.34 157.332 522.663C158.352 522.044 159.425 521.527 160.537 521.117C161.526 520.727 162.569 520.51 163.625 520.475C164.839 520.41 166.038 520.774 167.034 521.51C168.029 522.245 168.763 523.309 169.119 524.533C169.904 526.929 169.266 528.831 166.992 530.624C166.052 531.351 165.072 532.02 164.058 532.626C163.372 533.047 162.776 533.612 162.306 534.286C161.837 534.96 161.504 535.729 161.329 536.545C160.803 538.584 160.755 540.727 161.19 542.79C163.306 553.193 166.802 563.229 171.576 572.603C174.51 578.16 177.906 583.3 182.578 587.42C188.307 592.483 194.776 594.848 202.302 593.704C205.772 593.178 209.094 593.704 211.948 596.131C212.402 596.51 212.916 596.834 213.415 597.182C213.869 597.523 214.39 597.754 214.939 597.857C215.488 597.96 216.052 597.933 216.591 597.777C217.782 597.459 218.947 597.04 220.075 596.525C221.652 595.853 223.17 595.049 224.813 594.539C228.385 593.434 231.723 593.557 234.759 596.201C236.226 597.476 236.6 597.406 238.148 596.201C238.859 595.57 239.661 595.064 240.525 594.701C242.307 594.091 244.082 593.457 245.872 592.854C246.702 592.536 247.602 592.482 248.461 592.699C249.48 592.985 250.529 593.132 251.564 593.372C252.297 593.542 252.539 593.186 252.532 592.498C252.526 592.188 252.501 591.878 252.458 591.571C252.112 588.927 251.155 586.414 249.671 584.251C249.29 583.702 248.938 583.153 248.549 582.589C248.16 582.025 248.182 581.561 248.886 581.283C249.91 580.82 250.977 580.47 252.07 580.239C253.061 580.034 254.088 580.16 255.009 580.599C255.929 581.038 256.697 581.769 257.204 582.69C257.696 583.532 258.113 584.419 258.451 585.341C258.671 585.89 258.693 586.539 259.185 587.018C259.727 583.803 259.485 580.525 259.911 577.07Z" fill="#0A8057"/>
</svg>
