<svg width="40" height="32" viewBox="0 0 40 32" fill="none" xmlns="http://www.w3.org/2000/svg">
<path fill-rule="evenodd" clip-rule="evenodd" d="M3.74967 2.66663C3.63917 2.66663 3.53319 2.71052 3.45505 2.78866C3.37691 2.8668 3.33301 2.97279 3.33301 3.08329V28.9166C3.33301 29.1466 3.51967 29.3333 3.74967 29.3333H9.04634L23.333 14.295C23.6012 14.0128 23.9231 13.7871 24.2798 13.6313C24.6365 13.4755 25.0209 13.3926 25.4101 13.3876C25.7993 13.3827 26.1856 13.4557 26.5462 13.6023C26.9068 13.749 27.2344 13.9664 27.5097 14.2416L36.6663 23.4V3.08329C36.6663 2.97279 36.6224 2.8668 36.5443 2.78866C36.4662 2.71052 36.3602 2.66663 36.2497 2.66663H3.74967ZM9.57634 31.8333H36.2497C37.0232 31.8333 37.7651 31.526 38.3121 30.979C38.859 30.432 39.1663 29.6902 39.1663 28.9166V3.08329C39.1663 2.30974 38.859 1.56788 38.3121 1.0209C37.7651 0.473917 37.0232 0.166626 36.2497 0.166626H3.74967C2.97613 0.166626 2.23426 0.473917 1.68728 1.0209C1.1403 1.56788 0.833008 2.30974 0.833008 3.08329V28.9166C0.833008 30.5266 2.13967 31.8333 3.74967 31.8333H9.57634ZM36.6663 28.9166V26.9333L25.7413 16.01C25.7021 15.9706 25.6553 15.9395 25.6039 15.9184C25.5524 15.8974 25.4972 15.8869 25.4416 15.8875C25.386 15.8881 25.3311 15.8999 25.2801 15.922C25.2291 15.9442 25.183 15.9764 25.1447 16.0166L12.4947 29.3333H36.2497C36.3602 29.3333 36.4662 29.2894 36.5443 29.2113C36.6224 29.1331 36.6663 29.0271 36.6663 28.9166ZM14.9997 11.4166C14.9997 11.7996 14.9242 12.1789 14.7777 12.5328C14.6311 12.8867 14.4162 13.2082 14.1454 13.479C13.8746 13.7499 13.553 13.9647 13.1992 14.1113C12.8453 14.2578 12.466 14.3333 12.083 14.3333C11.7 14.3333 11.3207 14.2578 10.9668 14.1113C10.613 13.9647 10.2915 13.7499 10.0206 13.479C9.74978 13.2082 9.53493 12.8867 9.38836 12.5328C9.24178 12.1789 9.16634 11.7996 9.16634 11.4166C9.16634 10.6431 9.47363 9.90121 10.0206 9.35423C10.5676 8.80725 11.3095 8.49996 12.083 8.49996C12.8566 8.49996 13.5984 8.80725 14.1454 9.35423C14.6924 9.90121 14.9997 10.6431 14.9997 11.4166ZM17.4997 11.4166C17.4997 12.8532 16.929 14.231 15.9132 15.2468C14.8973 16.2626 13.5196 16.8333 12.083 16.8333C10.6464 16.8333 9.26867 16.2626 8.25285 15.2468C7.23702 14.231 6.66634 12.8532 6.66634 11.4166C6.66634 9.98004 7.23702 8.60229 8.25285 7.58646C9.26867 6.57064 10.6464 5.99996 12.083 5.99996C13.5196 5.99996 14.8973 6.57064 15.9132 7.58646C16.929 8.60229 17.4997 9.98004 17.4997 11.4166Z" fill="#1FEDA3"/>
</svg>
