<svg width="37" height="38" viewBox="0 0 37 38" fill="none" xmlns="http://www.w3.org/2000/svg">
<path fill-rule="evenodd" clip-rule="evenodd" d="M25.1673 13.8793C25.1673 15.6474 24.4649 17.3431 23.2147 18.5934C21.9645 19.8436 20.2688 20.546 18.5007 20.546C16.7325 20.546 15.0368 19.8436 13.7866 18.5934C12.5364 17.3431 11.834 15.6474 11.834 13.8793C11.834 12.1112 12.5364 10.4155 13.7866 9.16527C15.0368 7.91503 16.7325 7.21265 18.5007 7.21265C20.2688 7.21265 21.9645 7.91503 23.2147 9.16527C24.4649 10.4155 25.1673 12.1112 25.1673 13.8793ZM21.834 13.8793C21.834 14.7634 21.4828 15.6112 20.8577 16.2363C20.2326 16.8615 19.3847 17.2126 18.5007 17.2126C17.6166 17.2126 16.7688 16.8615 16.1436 16.2363C15.5185 15.6112 15.1673 14.7634 15.1673 13.8793C15.1673 12.9953 15.5185 12.1474 16.1436 11.5223C16.7688 10.8972 17.6166 10.546 18.5007 10.546C19.3847 10.546 20.2326 10.8972 20.8577 11.5223C21.4828 12.1474 21.834 12.9953 21.834 13.8793Z" fill="black"/>
<path fill-rule="evenodd" clip-rule="evenodd" d="M18.5003 0.546021C8.37533 0.546021 0.166992 8.75435 0.166992 18.8794C0.166992 29.0044 8.37533 37.2127 18.5003 37.2127C28.6253 37.2127 36.8337 29.0044 36.8337 18.8794C36.8337 8.75435 28.6253 0.546021 18.5003 0.546021ZM3.50033 18.8794C3.50033 22.3627 4.68866 25.5694 6.68033 28.116C8.07904 26.2792 9.88349 24.7906 11.9527 23.7665C14.0219 22.7425 16.2999 22.2107 18.6087 22.2127C20.8875 22.2105 23.1368 22.7286 25.1852 23.7273C27.2336 24.7261 29.0269 26.1792 30.4287 27.976C31.8727 26.082 32.8451 23.8714 33.2651 21.527C33.6852 19.1826 33.541 16.7719 32.8445 14.4943C32.1479 12.2167 30.919 10.1378 29.2595 8.42942C27.5999 6.72106 25.5574 5.43245 23.301 4.6702C21.0445 3.90795 18.639 3.69397 16.2834 4.04598C13.9279 4.39798 11.69 5.30584 9.75494 6.69444C7.8199 8.08305 6.24334 9.91247 5.15571 12.0313C4.06807 14.1502 3.50063 16.4976 3.50033 18.8794ZM18.5003 33.8793C15.0569 33.8845 11.7174 32.6999 9.04699 30.526C10.1219 28.9872 11.5526 27.7309 13.2173 26.8638C14.8821 25.9968 16.7316 25.5447 18.6087 25.546C20.4623 25.5445 22.2895 25.9853 23.9385 26.8317C25.5876 27.6781 27.0109 28.9058 28.0903 30.4127C25.3992 32.6572 22.0046 33.8843 18.5003 33.8793Z" fill="black"/>
</svg>
