<svg width="26" height="27" viewBox="0 0 26 27" fill="none" xmlns="http://www.w3.org/2000/svg">
<path d="M25.846 24.8998L18.766 17.8198C20.4674 15.7773 21.3158 13.1575 21.1348 10.5053C20.9537 7.85321 19.7572 5.37297 17.7941 3.58059C15.8309 1.78821 13.2523 0.821677 10.5947 0.882063C7.93713 0.942449 5.40511 2.0251 3.52541 3.9048C1.64571 5.7845 0.563054 8.31652 0.502668 10.9741C0.442282 13.6317 1.40881 16.2103 3.2012 18.1735C4.99358 20.1366 7.47381 21.3331 10.1259 21.5142C12.7781 21.6952 15.3979 20.8468 17.4404 19.1454L24.5204 26.2254L25.846 24.8998ZM2.40853 11.2254C2.40853 9.55664 2.90338 7.92534 3.8305 6.5378C4.75763 5.15026 6.07538 4.0688 7.61713 3.43019C9.15889 2.79157 10.8554 2.62448 12.4921 2.95004C14.1288 3.27561 15.6322 4.0792 16.8122 5.25921C17.9922 6.43921 18.7958 7.94263 19.1214 9.57934C19.447 11.2161 19.2799 12.9126 18.6413 14.4543C18.0026 15.9961 16.9212 17.3138 15.5336 18.2409C14.1461 19.1681 12.5148 19.6629 10.846 19.6629C8.60902 19.6604 6.46435 18.7707 4.88255 17.1889C3.30075 15.6071 2.41101 13.4624 2.40853 11.2254Z" fill="#00A86E"/>
</svg>
