<svg width="35" height="41" viewBox="0 0 35 41" fill="none" xmlns="http://www.w3.org/2000/svg">
<path d="M17.815 40.7556H16.5586C14.2477 39.9798 12.046 38.9757 10.0005 37.6478C6.38299 35.3017 3.73445 32.1509 2.10984 28.1586C0.66975 24.6097 0.193909 20.8841 0.0941863 17.1022C0.0345098 14.8171 0.00781241 12.5265 0.151507 10.2391C0.244163 8.75319 0.932013 7.62862 2.16716 6.81531C3.00734 6.26163 3.96688 6.15762 4.93348 6.08489C8.28557 5.83151 11.3283 4.76325 13.9792 2.67287C14.521 2.24588 15.0219 1.76727 15.5567 1.3309C15.9938 0.972488 16.5391 0.770625 17.1051 0.757667C17.9854 0.723257 18.6575 1.12522 19.2645 1.69611C20.3542 2.72776 21.5832 3.60296 22.9157 4.29637C25.1929 5.47646 27.6365 5.98322 30.1735 6.15762C31.3992 6.24208 32.4231 6.759 33.2319 7.69666C34.058 8.65465 34.2755 9.79877 34.2794 11.0047C34.2888 13.8247 34.3917 16.6455 34.1506 19.4624C33.9567 21.7303 33.6269 23.9763 32.9602 26.1613C31.7329 30.1872 29.5579 33.5906 26.2655 36.2574C23.7418 38.3055 20.8781 39.7163 17.815 40.7556ZM27.1182 20.7778C27.1669 15.3614 22.6425 10.8756 17.1931 10.8733C11.757 10.8733 7.25066 15.3364 7.2483 20.7684C7.24594 26.2004 11.746 30.6721 17.1837 30.6744C22.6393 30.6768 27.1614 26.1918 27.1182 20.7778Z" fill="#42FF00"/>
</svg>
