<svg width="36" height="36" viewBox="0 0 36 36" fill="none" xmlns="http://www.w3.org/2000/svg">
<path d="M18 0.222168C14.4838 0.222168 11.0467 1.26482 8.12315 3.21826C5.19961 5.17171 2.92099 7.94822 1.57543 11.1967C0.229871 14.4451 -0.122189 18.0197 0.563771 21.4682C1.24973 24.9168 2.9429 28.0845 5.42917 30.5707C7.91543 33.057 11.0831 34.7502 14.5317 35.4361C17.9802 36.1221 21.5548 35.77 24.8032 34.4245C28.0517 33.0789 30.8282 30.8003 32.7816 27.8768C34.7351 24.9532 35.7777 21.5161 35.7777 17.9999C35.7777 13.285 33.9047 8.76314 30.5707 5.42916C27.2368 2.09518 22.7149 0.222168 18 0.222168ZM17.7555 28.9444C17.3929 28.9444 17.0385 28.8369 16.737 28.6354C16.4355 28.434 16.2005 28.1476 16.0617 27.8126C15.923 27.4776 15.8867 27.109 15.9574 26.7534C16.0281 26.3978 16.2028 26.0711 16.4591 25.8147C16.7155 25.5583 17.0422 25.3837 17.3978 25.313C17.7535 25.2422 18.1221 25.2785 18.4571 25.4173C18.7921 25.556 19.0784 25.791 19.2799 26.0925C19.4813 26.394 19.5888 26.7485 19.5888 27.1111C19.5888 27.5973 19.3957 28.0636 19.0519 28.4074C18.7081 28.7512 18.2417 28.9444 17.7555 28.9444ZM19.2777 19.9888V21.8999C19.2754 22.2886 19.1245 22.6617 18.8559 22.9426C18.5873 23.2236 18.2215 23.3912 17.8333 23.4111H17.7111C17.5146 23.4185 17.3186 23.3869 17.1344 23.3182C16.9502 23.2495 16.7815 23.1449 16.6379 23.0106C16.4943 22.8764 16.3787 22.715 16.2978 22.5358C16.2169 22.3566 16.1724 22.1631 16.1666 21.9666V18.8999C16.1483 18.7218 16.1664 18.5418 16.2197 18.3709C16.273 18.1999 16.3606 18.0416 16.4769 17.9055C16.5933 17.7694 16.7361 17.6583 16.8967 17.5791C17.0572 17.4998 17.2323 17.454 17.4111 17.4444C19.1555 17.3111 22.0555 16.6666 22.0555 13.8333C22.0555 11.7999 20.4888 10.4222 18.2444 10.4222C17.3936 10.4362 16.5558 10.6341 15.7887 11.0024C15.0215 11.3706 14.3431 11.9004 13.8 12.5555C13.5945 12.7738 13.3288 12.926 13.0367 12.9929C12.7445 13.0598 12.439 13.0382 12.1591 12.931C11.8792 12.8238 11.6375 12.6358 11.4647 12.3909C11.2919 12.1459 11.1959 11.8552 11.1888 11.5555C11.1954 11.1366 11.3671 10.7373 11.6666 10.4444C12.4918 9.48911 13.5164 8.72639 14.6682 8.20998C15.8201 7.69357 17.0711 7.43603 18.3333 7.4555C22.4444 7.4555 25.3111 10.0111 25.3111 13.6777C25.3111 17.0666 23.1222 19.3333 19.2777 19.9888Z" fill="#0A8057"/>
</svg>
