<svg width="100" height="100" viewBox="0 0 100 100" fill="none" xmlns="http://www.w3.org/2000/svg">
<path d="M49.7803 100C44.8814 97.526 40.4176 95.0521 36.3889 92.5781C32.3601 90.1042 28.7665 87.4837 25.608 84.7168C22.4495 81.9499 19.6616 79.4108 17.2444 77.0996C14.8271 74.7884 12.7322 71.9889 10.9596 68.7012C9.18693 65.4134 7.68824 62.6139 6.46351 60.3027C5.23878 57.9915 4.23965 54.834 3.46614 50.8301C2.69262 46.8262 2.08026 43.6035 1.62904 41.1621C1.17782 38.7207 0.855527 35.0911 0.662148 30.2734C0.468769 25.4557 0.355965 21.6797 0.323735 18.9453C0.291506 16.2109 0.275391 11.9792 0.275391 6.25C16.0035 2.08333 32.5052 0 49.7803 0C66.9911 0 83.4927 2.08333 99.2853 6.25C99.2853 11.9792 99.2692 16.2272 99.237 18.9941C99.2047 21.7611 99.0919 25.5371 98.8985 30.3223C98.7052 35.1074 98.3829 38.737 97.9316 41.2109C97.4804 43.6849 96.8681 46.9076 96.0946 50.8789C95.321 54.8503 94.3219 57.9915 93.0972 60.3027C91.8725 62.6139 90.3738 65.4134 88.6011 68.7012C86.8285 71.9889 84.7336 74.7884 82.3163 77.0996C79.8991 79.4108 77.1112 81.9499 73.9527 84.7168C70.7942 87.4837 67.2005 90.1042 63.1718 92.5781C59.1431 95.0521 54.6793 97.526 49.7803 100ZM12.6516 16.9922C12.6516 22.7865 12.6839 27.0671 12.7483 29.834C12.8128 32.6009 13.0706 36.263 13.5218 40.8203C13.9731 45.3776 14.666 48.8607 15.6007 51.2695C16.5353 53.6784 17.8729 56.6081 19.6133 60.0586C21.3537 63.5091 23.5453 66.4225 26.1881 68.7988C28.831 71.1751 32.1184 73.7305 36.0505 76.4649C39.9825 79.1992 44.5591 81.8359 49.7803 84.375C55.0016 81.8359 59.5782 79.1992 63.5102 76.4649C67.4423 73.7305 70.7297 71.1751 73.3726 68.7988C76.0154 66.4225 78.207 63.5091 79.9474 60.0586C81.6878 56.6081 83.0254 53.6784 83.96 51.2695C84.8947 48.8607 85.5876 45.3776 86.0389 40.8203C86.4901 36.263 86.7479 32.6009 86.8124 29.834C86.8768 27.0671 86.9091 22.7865 86.9091 16.9922C75.113 13.9974 62.7367 12.5 49.7803 12.5C36.824 12.5 24.4477 13.9974 12.6516 16.9922Z" fill="#FFB800"/>
</svg>
